<svg width="24" height="17" viewBox="0 0 24 17" fill="none" xmlns="http://www.w3.org/2000/svg">
<path d="M11.4583 2.57723L8.48915 0L0 7.21658C0.308572 7.50049 0.725143 7.67729 1.18457 7.67729H21.732C22.1897 7.67729 22.6046 7.50049 22.9114 7.21658L14.4274 0L11.4583 2.57723Z" transform="translate(0.541748 9.32281)" fill="white"/>
<path d="M22.9132 0.460705C22.6046 0.175102 22.1897 0 21.7286 0H1.18114C0.723429 0 0.308572 0.176802 0 0.464105L11.4549 10.2001L22.9132 0.460705Z" transform="translate(0.545166)" fill="white"/>
<path d="M0 0V14.1238L8.28515 7.14178L0 0Z" transform="translate(0 1.49243)" fill="white"/>
<path d="M0 7.14688L8.28515 14.1289V0L0 7.14688Z" transform="translate(15.7148 1.48755)" fill="white"/>
</svg>
