<svg width="30" height="30" viewBox="0 0 30 30" fill="none" xmlns="http://www.w3.org/2000/svg">
<path d="M27.5 0H2.50002C1.09998 0 0 1.09998 0 2.50002V27.5C0 28.9 1.09998 30 2.50002 30H14H20H27.5C28.9 30 30 28.9 30 27.5V2.50002C30 1.09998 28.9 0 27.5 0ZM15 29V19H11V15H15V11.5C15 8.65002 17.2 6.25002 20 6H24.5V10H20.5C19.6499 10 19 10.65 19 11.5V15H24V19H19V29H15V29ZM29 27.5C29 28.35 28.35 29 27.5 29H20V20H25V14H20V11.5C20 11.2 20.2 11 20.5 11H25.5V4.99998H19.95C16.6 5.29998 14 8.14998 14 11.5V14H9.99996V20H14V29H2.50002C1.65 29 1.00002 28.35 1.00002 27.5V2.50002C1.00002 1.65 1.65 1.00002 2.50002 1.00002H27.5C28.3501 1.00002 29 1.65 29 2.50002V27.5H29Z" fill="white"/>
</svg>
