<svg width="95" height="95" viewBox="0 0 95 95" fill="none" xmlns="http://www.w3.org/2000/svg">
<path d="M71.2516 14.7408C69.4369 12.9261 66.5851 12.6664 64.4725 14.1233L54.0714 21.9452H46.5206C47.6766 21.2037 48.4433 19.9083 48.4433 18.433C48.4433 16.1294 46.5759 14.2621 44.2724 14.2621H36.5284C35.052 14.2621 33.6363 13.6755 32.5924 12.6317L22.7245 2.71733C20.9846 0.977459 18.6248 0 16.1645 0H0V26.3844L8.36648 31.4515C11.8449 33.5584 15.8342 34.6722 19.901 34.6722H47.3628C52.465 34.6722 57.4122 32.9199 61.377 29.7086L70.8707 22.019C73.1327 20.1869 73.3099 16.799 71.2516 14.7408Z" transform="translate(20.4565 58.4723)" fill="#FFCDAC"/>
<path d="M41.1914 58.2617H1.85547C0.830692 58.2617 0 57.431 0 56.4062V1.85547C0 0.830693 0.830692 0 1.85547 0H41.1914C42.2161 0 43.0468 0.830693 43.0468 1.85547V56.4062C43.0468 57.431 42.2161 58.2617 41.1914 58.2617Z" transform="translate(50.0977 1.85547)" fill="white"/>
<path d="M27.7438 54.6113C26.719 54.6113 25.8884 53.7806 25.8884 52.7558V0L0.928059 14.4109C0.0405893 14.9232 -0.263522 16.058 0.248957 16.9454L27.5243 64.1877C28.0366 65.0752 29.1714 65.3793 30.0589 64.8668L47.8224 54.6113H27.7438Z" transform="translate(24.2092 5.50592)" fill="#DFF3FF"/>
<path d="M16.7456 41.6553H0V0H16.7456C17.7704 0 18.6011 0.830693 18.6011 1.85547V39.7998C18.6011 40.8246 17.7704 41.6553 16.7456 41.6553Z" transform="translate(1.85547 51.4893)" fill="#FE6663"/>
<path d="M11.875 23.75C18.4334 23.75 23.75 18.4334 23.75 11.875C23.75 5.31662 18.4334 0 11.875 0C5.31661 0 0 5.31662 0 11.875C0 18.4334 5.31661 23.75 11.875 23.75Z" transform="translate(59.7461 9.27734)" fill="#FFC870"/>
<path d="M7.5306 3.7653V4.70658C7.5306 6.78601 5.84491 8.47189 3.7653 8.47189C1.68588 8.47189 0 6.78619 0 4.70658V3.7653C0 1.68588 1.68569 0 3.7653 0C5.84472 0 7.5306 1.68588 7.5306 3.7653Z" transform="translate(67.8557 15.8665)" fill="#FFCDAC"/>
<path d="M8.08538 0C4.40988 0 1.2697 2.28334 0 5.50777C2.12006 7.48051 4.96096 8.68897 8.08538 8.68897C11.2098 8.68897 14.0507 7.48051 16.1708 5.50777C14.9011 2.28315 11.7609 0 8.08538 0Z" transform="translate(63.5356 24.3383)" fill="#A5DDFF"/>
<path d="M13.7305 0C6.15941 0 0 6.15941 0 13.7305C0 17.6359 1.64172 21.1629 4.26813 23.6656C4.3353 23.7402 4.40748 23.8109 4.48708 23.8743C6.9285 26.1011 10.1735 27.4609 13.7305 27.4609C17.2874 27.4609 20.5324 26.1011 22.974 23.8743C23.0536 23.8107 23.1258 23.7402 23.193 23.6656C25.8192 21.1629 27.4609 17.6359 27.4609 13.7305C27.4609 6.15941 21.3015 0 13.7305 0ZM7.97591 21.9251C9.21387 19.9775 11.3534 18.772 13.7305 18.772C16.1075 18.772 18.247 19.9776 19.485 21.9251C17.8552 23.0731 15.8709 23.75 13.7305 23.75C11.59 23.75 9.60575 23.0731 7.97591 21.9251ZM11.8208 13.1512V12.2099C11.8208 11.1569 12.6775 10.3003 13.7305 10.3003C14.7834 10.3003 15.6401 11.1569 15.6401 12.2099V13.1512C15.6401 14.2044 14.7834 15.061 13.7305 15.061C12.6775 15.061 11.8208 14.2044 11.8208 13.1512ZM22.1159 19.205C21.1404 17.9194 19.8908 16.8866 18.4656 16.1736C19.0252 15.3 19.351 14.2632 19.351 13.1512V12.2099C19.351 9.11072 16.8296 6.58933 13.7305 6.58933C10.6313 6.58933 8.10987 9.11072 8.10987 12.2099V13.1512C8.10987 14.2634 8.43588 15.3 8.9953 16.1736C7.57012 16.8866 6.32046 17.9192 5.34504 19.205C4.3134 17.6301 3.71093 15.7498 3.71093 13.7305C3.71093 8.20563 8.20562 3.71094 13.7305 3.71094C19.2553 3.71094 23.75 8.20563 23.75 13.7305C23.75 15.7498 23.1475 17.6301 22.1159 19.205Z" transform="translate(57.8906 7.42188)" fill="black"/>
<path d="M91.289 61.9727C93.3352 61.9727 94.9999 60.3079 94.9999 58.2617V3.71094C94.9999 1.66473 93.3352 0 91.289 0H51.9531C49.9069 0 48.2421 1.66473 48.2421 3.71094V58.2617C48.2421 60.3079 49.9069 61.9727 51.9531 61.9727H65.1068L53.3402 68.7661C53.34 68.7661 53.34 68.7663 53.3398 68.7663L44.4926 59.8775C42.3898 57.7747 39.5942 56.6167 36.6204 56.6167H22.312V53.3447C22.312 51.2985 20.6473 49.6338 18.6011 49.6338H1.85547C0.830692 49.6338 0 50.4647 0 51.4893V93.1445C0 94.1691 0.830692 95 1.85547 95H18.6011C20.6473 95 22.312 93.3353 22.312 91.2891V88.1498L27.8617 91.511C31.6305 93.7936 35.9513 95 40.3575 95H67.8193C73.3286 95 78.7204 93.0903 83.0013 89.6228L92.4952 81.9334C93.9812 80.7296 94.891 78.9439 94.9908 77.034C95.0908 75.1242 94.3724 73.2533 93.0203 71.9013C90.572 69.453 86.7262 69.1025 83.8758 71.0684C83.8548 71.0828 83.8342 71.0977 83.814 71.1129L73.413 78.9348C72.594 79.5506 72.4294 80.714 73.0453 81.533C73.6611 82.3518 74.8243 82.5168 75.6433 81.9006L86.0109 74.1037C87.3836 73.1763 89.2225 73.3511 90.3963 74.5251C91.0151 75.1439 91.3307 75.966 91.2851 76.84C91.2394 77.7139 90.8396 78.4988 90.1595 79.0497L80.6657 86.7391C77.0432 89.6731 72.481 91.2891 67.8193 91.2891H40.3575C36.6293 91.2891 32.9731 90.2682 29.7843 88.3368L22.3122 83.8111V60.3278H36.6208C38.6032 60.3278 40.467 61.0998 41.8658 62.4987L51.7369 72.416C53.1387 73.8178 55.0025 74.5898 56.9849 74.5898H64.265C65.7976 74.5898 67.0443 75.8367 67.0443 77.3691C67.0443 78.9016 65.7974 80.1485 64.265 80.1485H50.2831C49.0008 80.1485 47.7551 79.779 46.6804 79.0799L40.726 75.2072L40.7043 75.1931C39.8461 74.6333 38.6965 74.8745 38.1363 75.7326C37.5762 76.5908 37.8177 77.7404 38.6759 78.3006L44.657 82.1908C46.3353 83.2825 48.2807 83.8594 50.2831 83.8594H64.2648C67.8437 83.8594 70.7551 80.948 70.7551 77.3691C70.7551 73.7903 67.8435 70.8789 64.2648 70.8789H57.1027L72.5287 61.9727H91.289ZM18.6011 91.2891H3.71093V53.3447H18.6011L18.6014 58.466C18.6014 58.468 18.6011 58.4701 18.6011 58.4723C18.6011 58.4745 18.6014 58.4764 18.6014 58.4786L18.6031 84.7662C18.6009 84.8131 18.6018 84.8599 18.6031 84.9064L18.6035 91.2889C18.6035 91.2889 18.6027 91.2891 18.6011 91.2891ZM51.9531 3.71094H91.289L91.2914 58.2615C91.2914 58.2615 91.2906 58.2617 91.289 58.2617H51.9531V3.71094Z" fill="black"/>
<path d="M16.7074 43.0403C17.051 43.6356 17.6746 43.9684 18.3159 43.9684C18.6306 43.9684 18.9497 43.8881 19.242 43.7194C20.1294 43.207 20.4335 42.0723 19.9211 41.1849L3.71003 13.1064L20.4137 3.46263C21.3012 2.95034 21.6053 1.81553 21.0928 0.92806C20.5805 0.0405888 19.4455 -0.263523 18.5582 0.248958L1.85456 9.89276C0.0825921 10.916 -0.526558 13.1901 0.496361 14.9619L16.7074 43.0403Z" transform="translate(22.3547 8.41721)" fill="black"/>
<path d="M23.3789 0H1.85547C0.830692 0 0 0.830693 0 1.85547C0 2.88024 0.830692 3.71094 1.85547 3.71094H23.3789C24.4037 3.71094 25.2343 2.88024 25.2343 1.85547C25.2343 0.830693 24.4037 0 23.3789 0Z" transform="translate(59.7461 39.3359)" fill="black"/>
<path d="M1.85547 0C1.36748 0 0.888767 0.198348 0.54365 0.543651C0.198534 0.888768 0 1.36748 0 1.85547C0 2.34346 0.198534 2.82217 0.54365 3.1671C0.888767 3.51222 1.36748 3.71094 1.85547 3.71094C2.34345 3.71094 2.82217 3.5124 3.16728 3.1671C3.5124 2.82217 3.71093 2.34346 3.71093 1.85547C3.71093 1.36748 3.5124 0.888768 3.16728 0.543651C2.82217 0.198534 2.34345 0 1.85547 0Z" transform="translate(81.2695 47.5)" fill="black"/>
<path d="M15.6401 0H1.85547C0.830692 0 0 0.830879 0 1.85547C0 2.88006 0.830692 3.71094 1.85547 3.71094H15.6401C16.6649 3.71094 17.4956 2.88006 17.4956 1.85547C17.4956 0.830879 16.6649 0 15.6401 0Z" transform="translate(59.7461 47.5)" fill="black"/>
<path d="M1.85547 0C0.830692 0 0 0.830879 0 1.85547V9.11406C0 10.1387 0.830692 10.9695 1.85547 10.9695C2.88024 10.9695 3.71093 10.1387 3.71093 9.11406V1.85547C3.71093 0.830693 2.88024 0 1.85547 0Z" transform="translate(9.30054 68.3828)" fill="black"/>
<path d="M1.85361 0C1.36562 0 0.888768 0.198534 0.541796 0.543651C0.196679 0.888768 0 1.36748 0 1.85547C0 2.34531 0.196679 2.82217 0.541796 3.16729C0.886913 3.51222 1.36562 3.71094 1.85361 3.71094C2.34345 3.71094 2.82031 3.5124 3.16728 3.16729C3.5124 2.82217 3.70908 2.34513 3.70908 1.85547C3.70908 1.36748 3.5124 0.888768 3.16728 0.543651C2.82031 0.198534 2.34345 0 1.85361 0Z" transform="translate(9.30151 82.0284)" fill="black"/>
</svg>
