<svg width="55" height="54" viewBox="0 0 55 54" fill="none" xmlns="http://www.w3.org/2000/svg">
<path d="M41.25 0H0.916667C0.410437 0 0 0.409805 0 0.915254V53.0847C0 53.5902 0.410437 54 0.916667 54H41.25C41.7562 54 42.1667 53.5902 42.1667 53.0847V0.915254C42.1667 0.409805 41.7562 0 41.25 0ZM40.3333 52.1695H1.83333V1.83051H40.3333V52.1695Z" fill="#D9E9FB"/>
<path d="M10.0833 0H0.916667C0.410437 0 0 0.409805 0 0.915254C0 1.4207 0.410437 1.83051 0.916667 1.83051H10.0833C10.5896 1.83051 11 1.4207 11 0.915254C11 0.409805 10.5896 0 10.0833 0Z" transform="translate(15.5833 9.15234)" fill="#D9E9FB"/>
<path d="M6.41667 0H0.916667C0.410437 0 0 0.409805 0 0.915254C0 1.4207 0.410437 1.83051 0.916667 1.83051H6.41667C6.9229 1.83051 7.33333 1.4207 7.33333 0.915254C7.33333 0.409805 6.9229 0 6.41667 0Z" transform="translate(7.33333 20.1357)" fill="#D9E9FB"/>
<path d="M21.0833 0H0.916667C0.410437 0 0 0.409805 0 0.915254C0 1.4207 0.410437 1.83051 0.916667 1.83051H21.0833C21.5896 1.83051 22 1.4207 22 0.915254C22 0.409805 21.5896 0 21.0833 0Z" transform="translate(16.5 20.1357)" fill="#D9E9FB"/>
<path d="M33.9167 0H0.916667C0.410437 0 0 0.409805 0 0.915254C0 1.4207 0.410437 1.83051 0.916667 1.83051H33.9167C34.4229 1.83051 34.8333 1.4207 34.8333 0.915254C34.8333 0.409805 34.4229 0 33.9167 0Z" transform="translate(3.66667 23.7964)" fill="#D9E9FB"/>
<path d="M24.75 0H0.916667C0.410437 0 0 0.409805 0 0.915254C0 1.4207 0.410437 1.83051 0.916667 1.83051H24.75C25.2562 1.83051 25.6667 1.4207 25.6667 0.915254C25.6667 0.409805 25.2562 0 24.75 0Z" transform="translate(3.66667 27.458)" fill="#D9E9FB"/>
<path d="M6.41667 0H0.916667C0.410437 0 0 0.409805 0 0.915254C0 1.4207 0.410437 1.83051 0.916667 1.83051H6.41667C6.9229 1.83051 7.33333 1.4207 7.33333 0.915254C7.33333 0.409805 6.9229 0 6.41667 0Z" transform="translate(31.1667 27.458)" fill="#D9E9FB"/>
<path d="M17.4167 0H0.916667C0.410437 0 0 0.409805 0 0.915254C0 1.4207 0.410437 1.83051 0.916667 1.83051H17.4167C17.9229 1.83051 18.3333 1.4207 18.3333 0.915254C18.3333 0.409805 17.9229 0 17.4167 0Z" transform="translate(20.1667 31.1187)" fill="#D9E9FB"/>
<path d="M13.75 0H0.916667C0.410437 0 0 0.409805 0 0.915254C0 1.4207 0.410437 1.83051 0.916667 1.83051H13.75C14.2562 1.83051 14.6667 1.4207 14.6667 0.915254C14.6667 0.409805 14.2562 0 13.75 0Z" transform="translate(3.66667 31.1187)" fill="#D9E9FB"/>
<path d="M4.58333 0H0.916667C0.410437 0 0 0.409805 0 0.915254C0 1.4207 0.410437 1.83051 0.916667 1.83051H4.58333C5.08956 1.83051 5.5 1.4207 5.5 0.915254C5.5 0.409805 5.08956 0 4.58333 0Z" transform="translate(33 34.7793)" fill="#D9E9FB"/>
<path d="M5.5 0H0.916667C0.410437 0 0 0.409805 0 0.915254C0 1.4207 0.410437 1.83051 0.916667 1.83051H5.5C6.00623 1.83051 6.41667 1.4207 6.41667 0.915254C6.41667 0.409805 6.00623 0 5.5 0Z" transform="translate(3.66667 34.7793)" fill="#D9E9FB"/>
<path d="M18.3333 0H0.916667C0.410438 0 0 0.409805 0 0.915254C0 1.4207 0.410438 1.83051 0.916667 1.83051H18.3333C18.8396 1.83051 19.25 1.4207 19.25 0.915254C19.25 0.409805 18.8396 0 18.3333 0Z" transform="translate(11.9167 34.7793)" fill="#D9E9FB"/>
<path d="M13.75 0H0.916667C0.410437 0 0 0.409805 0 0.915254C0 1.4207 0.410437 1.83051 0.916667 1.83051H13.75C14.2562 1.83051 14.6667 1.4207 14.6667 0.915254C14.6667 0.409805 14.2562 0 13.75 0Z" transform="translate(22.9167 45.7627)" fill="#D9E9FB"/>
<path d="M17.4167 0H0.916667C0.410437 0 0 0.409805 0 0.915254C0 1.4207 0.410437 1.83051 0.916667 1.83051H17.4167C17.9229 1.83051 18.3333 1.4207 18.3333 0.915254C18.3333 0.409805 17.9229 0 17.4167 0Z" transform="translate(11.9167 5.4917)" fill="#D9E9FB"/>
<path d="M10.0834 3.66102H7.33337C7.33337 1.63911 5.69174 0 3.66671 0C1.64168 0 4.00907e-05 1.63911 4.00907e-05 3.66102V36.6102C-0.00740783 39.1987 1.02316 41.6826 2.86187 43.5075L3.01862 43.664C3.37658 44.0213 3.95683 44.0213 4.31479 43.664L4.47154 43.5075C6.31026 41.6826 7.34082 39.1987 7.33337 36.6102V5.49153H9.16671V13.7288H11V4.57627C11 4.07082 10.5896 3.66102 10.0834 3.66102ZM3.66671 41.677C2.67843 40.4973 2.0591 39.0537 1.88562 37.5254H5.44779C5.27431 39.0537 4.65499 40.4973 3.66671 41.677ZM5.50004 35.6949H1.83337V5.49153H5.50004V35.6949ZM1.83337 3.66102C1.83337 2.65 2.65413 1.83051 3.66671 1.83051C4.67928 1.83051 5.50004 2.65 5.50004 3.66102H1.83337Z" transform="translate(44 4.57568)" fill="#D9E9FB"/>
<path d="M11.9167 0H0.916667C0.410437 0 0 0.409805 0 0.915254C0 1.4207 0.410437 1.83051 0.916667 1.83051H11.9167C12.4229 1.83051 12.8333 1.4207 12.8333 0.915254C12.8333 0.409805 12.4229 0 11.9167 0Z" transform="translate(25.6667 14.644)" fill="#D9E9FB"/>
<path d="M21.0833 0H0.916667C0.410437 0 0 0.409805 0 0.915254C0 1.4207 0.410437 1.83051 0.916667 1.83051H21.0833C21.5896 1.83051 22 1.4207 22 0.915254C22 0.409805 21.5896 0 21.0833 0Z" transform="translate(3.66667 38.4404)" fill="#D9E9FB"/>
</svg>
