<svg width="62" height="62" viewBox="0 0 62 62" fill="none" xmlns="http://www.w3.org/2000/svg">
<path d="M16.1603 14.3542C15.4551 13.8851 14.6501 13.5873 13.8095 13.4841C15.422 12.2148 16.4136 10.3155 16.5333 8.26674C16.5333 1.43428 12.5994 0 9.3 0C6.00057 0 2.06667 1.43428 2.06667 8.26674C2.18667 10.3156 3.17867 12.2149 4.79157 13.4841C2.05246 13.8216 -0.00399833 16.1502 5.83733e-06 18.9102V25.8335C5.83733e-06 26.4042 0.462681 26.8669 1.03334 26.8669H17.5667C18.1373 26.8669 18.6 26.4042 18.6 25.8335V18.9102C18.6012 17.0787 17.6852 15.3684 16.1603 14.3542ZM4.18707 7.17346C4.46711 3.7097 6.09667 2.06668 9.3 2.06668C12.2326 2.06668 13.8467 3.45343 14.3086 6.34679L10.8655 4.2801C10.3761 3.98651 9.74137 4.14525 9.44777 4.63467C9.40902 4.69925 9.37751 4.76771 9.35374 4.83914C8.83087 6.40776 6.00781 7.00089 4.18707 7.17346ZM4.27697 9.24635C6.04604 9.10064 9.23697 8.56537 10.725 6.60616L14.4181 8.82268C14.0037 11.3533 10.8862 13.4334 9.3 13.4334C6.99528 13.0409 5.07806 11.4427 4.27697 9.24635ZM10.1535 19.3834L9.3 20.239L8.44647 19.3845L9.3 17.2485L10.1535 19.3834ZM16.5333 24.8002H2.06667V18.9102C2.06667 17.0269 3.59342 15.5001 5.47667 15.5001H7.77067L6.27337 19.2501C6.12031 19.6339 6.21047 20.072 6.50277 20.3641L8.56944 22.4308C8.97296 22.8341 9.62706 22.8341 10.0306 22.4308L12.0972 20.3641C12.3895 20.072 12.4797 19.6339 12.3266 19.2501L10.8262 15.5001H13.1233C15.0066 15.5001 16.5333 17.0269 16.5333 18.9102V24.8002Z" transform="translate(0 35.1333)" fill="#D9E9FB"/>
<path d="M16.1603 14.3542C15.4551 13.8851 14.6501 13.5873 13.8095 13.4841C15.422 12.2148 16.4136 10.3155 16.5333 8.26674C16.5333 1.43428 12.5994 0 9.3 0C6.00057 0 2.06667 1.43428 2.06667 8.26674C2.18667 10.3156 3.17867 12.2149 4.79157 13.4841C2.05246 13.8216 -0.00399833 16.1502 5.83733e-06 18.9102V25.8335C5.83733e-06 26.4042 0.462681 26.8669 1.03334 26.8669H17.5667C18.1373 26.8669 18.6 26.4042 18.6 25.8335V18.9102C18.6012 17.0787 17.6852 15.3684 16.1603 14.3542ZM4.18707 7.17346C4.46711 3.7097 6.09667 2.06668 9.3 2.06668C12.2326 2.06668 13.8467 3.45343 14.3086 6.34679L10.8655 4.2801C10.3761 3.98651 9.74137 4.14525 9.44777 4.63467C9.40902 4.69925 9.37751 4.76771 9.35374 4.83914C8.83087 6.40776 6.00781 7.00089 4.18707 7.17346ZM4.27697 9.24635C6.04604 9.10064 9.23697 8.56537 10.725 6.60616L14.4181 8.82268C14.0037 11.3533 10.8862 13.4334 9.3 13.4334C6.99528 13.0409 5.07806 11.4427 4.27697 9.24635ZM10.1535 19.3834L9.3 20.239L8.44647 19.3845L9.3 17.2485L10.1535 19.3834ZM16.5333 24.8002H2.06667V18.9102C2.06667 17.0269 3.59342 15.5001 5.47667 15.5001H7.77067L6.27027 19.2501C6.11721 19.6339 6.20737 20.072 6.49967 20.3641L8.56634 22.4308C8.96986 22.8341 9.62396 22.8341 10.0275 22.4308L12.0941 20.3641C12.3864 20.072 12.4766 19.6339 12.3235 19.2501L10.8262 15.5001H13.1233C15.0066 15.5001 16.5333 17.0269 16.5333 18.9102V24.8002Z" transform="translate(21.7 35.1333)" fill="#D9E9FB"/>
<path d="M16.1603 14.3542C15.4551 13.8851 14.6501 13.5873 13.8095 13.4841C15.422 12.2148 16.4136 10.3155 16.5333 8.26674C16.5333 1.43428 12.5994 0 9.3 0C6.00057 0 2.06667 1.43428 2.06667 8.26674C2.18667 10.3156 3.17867 12.2149 4.79157 13.4841C2.05247 13.8216 -0.00399833 16.1502 5.83732e-06 18.9102V25.8335C5.83732e-06 26.4042 0.462681 26.8669 1.03334 26.8669H17.5667C18.1373 26.8669 18.6 26.4042 18.6 25.8335V18.9102C18.6012 17.0787 17.6852 15.3684 16.1603 14.3542ZM4.18707 7.17346C4.4671 3.7097 6.09667 2.06668 9.3 2.06668C12.2326 2.06668 13.8467 3.45343 14.3086 6.34679L10.8655 4.2801C10.3761 3.98651 9.74137 4.14525 9.44777 4.63467C9.40902 4.69925 9.3775 4.76771 9.35374 4.83914C8.83087 6.40776 6.0078 7.00089 4.18707 7.17346ZM4.27697 9.24635C6.04604 9.10064 9.23697 8.56537 10.725 6.60616L14.4181 8.82268C14.0037 11.3533 10.8862 13.4334 9.3 13.4334C6.99528 13.0409 5.07806 11.4427 4.27697 9.24635ZM10.1535 19.3834L9.3 20.239L8.44647 19.3845L9.3 17.2485L10.1535 19.3834ZM16.5333 24.8002H2.06667V18.9102C2.06667 17.0269 3.59342 15.5001 5.47667 15.5001H7.77067L6.27027 19.2501C6.11721 19.6339 6.20737 20.072 6.49967 20.3641L8.56634 22.4308C8.96986 22.8341 9.62395 22.8341 10.0275 22.4308L12.0941 20.3641C12.3864 20.072 12.4766 19.6339 12.3235 19.2501L10.8262 15.5001H13.1233C15.0066 15.5001 16.5333 17.0269 16.5333 18.9102V24.8002Z" transform="translate(43.4 35.1333)" fill="#D9E9FB"/>
<path d="M33.0672 22.7376V9.30414C33.0672 8.73348 32.6045 8.2708 32.0339 8.2708H22.7339V5.17077C22.7339 4.60011 22.2712 4.13743 21.7005 4.13743H15.423C13.9056 1.49776 11.0573 -0.0912651 8.01404 0.0040607C3.48068 0.258004 -0.050222 4.03435 0.00054051 8.5746C-0.00113866 11.2727 0.768307 13.9149 2.21807 16.1903L6.38447 22.7376H5.16721V24.8043H34.1005V22.7376H33.0672ZM11.3672 22.7376H10.1499L11.3672 20.8249V22.7376ZM8.26721 21.8468L3.96234 15.0805C2.72337 13.1369 2.06579 10.8796 2.06721 8.5746C2.00869 5.14855 4.65622 2.28297 8.07604 2.07074H8.26721C11.6914 2.07074 14.4672 4.84656 14.4672 8.2708V8.5746C14.4694 10.881 13.8118 13.1398 12.5721 15.0847L8.26721 21.8468ZM20.6672 22.7376H13.4339V17.576L14.3163 16.1903C15.7661 13.9149 16.5356 11.2727 16.5339 8.5746V8.2708C16.5314 7.57342 16.4411 6.87901 16.2652 6.20411H20.6672V22.7376ZM27.9005 22.7376H25.8339V19.6376H27.9005V22.7376ZM31.0005 11.3708H28.9339V13.4375H31.0005V14.4708H28.9339V16.5375H31.0005V22.7376H29.9672V18.6042C29.9672 18.0336 29.5045 17.5709 28.9339 17.5709H24.8005C24.2299 17.5709 23.7672 18.0336 23.7672 18.6042V22.7376H22.7339V16.5375H24.8005V14.4708H22.7339V13.4375H24.8005V11.3708H22.7339V10.3375H31.0005V11.3708Z" transform="translate(14.4661 8.2627)" fill="#D9E9FB"/>
<path d="M2.06667 0H0V2.06668H2.06667V0Z" transform="translate(32.0333 15.4995)" fill="#D9E9FB"/>
<path d="M2.06667 0H0V2.06668H2.06667V0Z" transform="translate(40.3 19.6333)" fill="#D9E9FB"/>
<path d="M2.06667 0H0V2.06668H2.06667V0Z" transform="translate(40.3 22.7334)" fill="#D9E9FB"/>
<path d="M2.06667 0H0V2.06668H2.06667V0Z" transform="translate(32.0333 18.6001)" fill="#D9E9FB"/>
<path d="M2.06667 0H0V2.06668H2.06667V0Z" transform="translate(32.0333 21.6997)" fill="#D9E9FB"/>
<path d="M2.06667 0H0V2.06668H2.06667V0Z" transform="translate(28.9333 24.7993)" fill="#D9E9FB"/>
<path d="M2.06667 0H0V2.06668H2.06667V0Z" transform="translate(32.0333 24.7993)" fill="#D9E9FB"/>
<path d="M2.06667 0H0V2.06668H2.06667V0Z" transform="translate(28.9333 27.8999)" fill="#D9E9FB"/>
<path d="M2.06667 0H0V2.06668H2.06667V0Z" transform="translate(32.0333 27.8999)" fill="#D9E9FB"/>
<path d="M2.02636 0L0 0.40817C0.1271 1.03954 0.230432 1.68538 0.309999 2.32709L2.3591 2.08322C2.2754 1.38675 2.1638 0.686139 2.02636 0Z" transform="translate(55.3164 21.5601)" fill="#D9E9FB"/>
<path d="M0.330667 0C0.191167 0.690272 0.0816333 1.38985 0 2.08012L2.0522 2.32192C2.1266 1.68538 2.22993 1.03851 2.356 0.399902L0.330667 0Z" transform="translate(4.31934 21.6099)" fill="#D9E9FB"/>
<path d="M1.80007 0L0 1.01474C0.317233 1.57585 0.62 2.15762 0.888667 2.74559L2.7621 1.87345C2.46657 1.23794 2.1421 0.607605 1.80007 0Z" transform="translate(52.6194 13.6899)" fill="#D9E9FB"/>
<path d="M1.62233 0L0 1.28341C0.3999 1.78665 0.786366 2.31675 1.14907 2.85512L2.86233 1.70088C2.46967 1.11808 2.0522 0.545605 1.62233 0Z" transform="translate(50.4494 10.1958)" fill="#D9E9FB"/>
<path d="M1.24207 0C0.807033 0.547671 0.389567 1.12118 0 1.70191L1.7174 2.85202C2.07597 2.31572 2.4614 1.78665 2.86233 1.27928L1.24207 0Z" transform="translate(8.66452 10.23)" fill="#D9E9FB"/>
<path d="M1.4012 0L0 1.51901C0.478433 1.96128 0.9424 2.42319 1.37743 2.89232L2.89333 1.48801C2.42213 0.979608 1.91993 0.478437 1.4012 0Z" transform="translate(47.8062 7.10986)" fill="#D9E9FB"/>
<path d="M0.959966 0C0.618966 0.606572 0.295533 1.23898 0 1.87862L1.87447 2.74662C2.1483 2.15555 2.44693 1.57171 2.76003 1.01474L0.959966 0Z" transform="translate(6.60095 13.7246)" fill="#D9E9FB"/>
<path d="M0.652033 0C0.407133 0.661339 0.188067 1.33611 0 2.00572L1.98813 2.56682C2.16277 1.94682 2.3653 1.32681 2.5916 0.715072L0.652033 0Z" transform="translate(5.14084 17.5532)" fill="#D9E9FB"/>
<path d="M1.49007 0C0.973399 0.474304 0.475333 0.975475 0 1.49008L1.51797 2.89232C1.95197 2.41905 2.41903 1.95818 2.8923 1.51798L1.49007 0Z" transform="translate(11.2747 7.13428)" fill="#D9E9FB"/>
<path d="M1.9375 0L0 0.718174C0.2263 1.32681 0.429865 1.94888 0.605532 2.56786L2.59366 2.00262C2.4025 1.33198 2.18033 0.659272 1.9375 0Z" transform="translate(54.2562 17.5103)" fill="#D9E9FB"/>
<path d="M2.0026 0C1.32473 0.192202 0.649967 0.413337 0 0.652039L0.716099 2.58955C1.31647 2.36842 1.93957 2.16588 2.56577 1.98815L2.0026 0Z" transform="translate(21.6887 1.00684)" fill="#D9E9FB"/>
<path d="M2.08113 0C1.39087 0.081634 0.690267 0.192202 0 0.327569L0.399899 2.35602C1.0385 2.22995 1.68537 2.12662 2.32293 2.05222L2.08113 0Z" transform="translate(25.7434 0.186523)" fill="#D9E9FB"/>
<path d="M0 0.0201576L0.0785335 2.08684C0.723333 2.06411 1.38053 2.06204 2.02533 2.08684L2.108 0.0201576C1.40843 -0.00774262 0.699567 -0.00567593 0 0.0201576Z" transform="translate(29.9254)" fill="#D9E9FB"/>
<path d="M1.87653 0C1.2431 0.292436 0.6107 0.620005 0 0.958941L1.01267 2.76109C1.57687 2.44385 2.15863 2.14108 2.74453 1.87552L1.87653 0Z" transform="translate(17.8653 2.46533)" fill="#D9E9FB"/>
<path d="M0.236633 0L0 2.05222C0.6355 2.12558 1.28237 2.22685 1.92303 2.35189L2.3188 0.323436C1.62543 0.188068 0.93 0.0795673 0.236633 0Z" transform="translate(33.8933 0.180664)" fill="#D9E9FB"/>
<path d="M1.14597 0L0 1.71948C0.5332 2.07495 1.06227 2.45935 1.5748 2.86236L2.852 1.23794C2.2971 0.801873 1.7236 0.384403 1.14597 0Z" transform="translate(44.7495 4.50293)" fill="#D9E9FB"/>
<path d="M0.554899 0L0 1.99022C0.62 2.16382 1.24 2.36429 1.84966 2.58749L2.56163 0.647905C1.90443 0.40507 1.22967 0.188068 0.554899 0Z" transform="translate(37.7074 0.993652)" fill="#D9E9FB"/>
<path d="M1.7019 0C1.11703 0.393703 0.543533 0.81014 0 1.24001L1.27927 2.86236C1.78147 2.46555 2.3126 2.08012 2.85407 1.71535L1.7019 0Z" transform="translate(14.3675 4.52734)" fill="#D9E9FB"/>
<path d="M0.863865 0L0 1.87655C0.583833 2.14625 1.1687 2.44385 1.736 2.75902L2.7435 0.954808C2.1297 0.613805 1.49833 0.291402 0.863865 0Z" transform="translate(41.354 2.44678)" fill="#D9E9FB"/>
<path d="M4.13333 0C1.85057 0 0 1.85059 0 4.13337C0 6.41615 1.85057 8.26673 4.13333 8.26673C6.41609 8.26673 8.26667 6.41615 8.26667 4.13337C8.26667 1.85059 6.41609 0 4.13333 0ZM4.13333 6.20005C2.99189 6.20005 2.06667 5.27482 2.06667 4.13337C2.06667 2.99191 2.99189 2.06668 4.13333 2.06668C5.27478 2.06668 6.2 2.99191 6.2 4.13337C6.2 5.27482 5.27478 6.20005 4.13333 6.20005Z" transform="translate(18.6 12.3994)" fill="#D9E9FB"/>
</svg>
