<svg width="282" height="335" viewBox="0 0 282 335" fill="none" xmlns="http://www.w3.org/2000/svg">
<path d="M267.452 137.051C267.452 211.94 207.89 272.601 134.476 272.601C61.062 272.601 1.5 211.94 1.5 137.051C1.5 62.1612 61.062 1.5 134.476 1.5C207.89 1.5 267.452 62.1612 267.452 137.051Z" transform="translate(0 60.8984)" stroke="#D9E9FB" stroke-width="3"/>
<path d="M8.39844 225.648V212.074C15.2995 212.595 19.8893 212.042 22.168 210.414C24.5117 208.786 25.6836 205.238 25.6836 199.77V179.652C25.6836 161.033 27.9948 148.337 32.6172 141.566C35.0911 138.051 38.6719 135.349 43.3594 133.461C38.6719 131.833 35.0911 129.197 32.6172 125.551C27.9948 118.78 25.6836 106.085 25.6836 87.4648V67.3477C25.6836 61.8789 24.5117 58.3307 22.168 56.7031C19.8893 55.0755 15.2995 54.5221 8.39844 55.043V41.4688C19.0755 40.6224 27.181 42.2826 32.7148 46.4492C38.3138 50.6159 41.1133 57.0938 41.1133 65.8828V88.9297C41.1133 101.625 42.5781 111.26 45.5078 117.836C48.4375 124.411 52.7344 127.699 58.3984 127.699V139.418C52.7344 139.418 48.4375 142.706 45.5078 149.281C42.5781 155.857 41.1133 165.492 41.1133 178.188V201.234C41.1133 210.023 38.3138 216.501 32.7148 220.668C27.181 224.835 19.0755 226.495 8.39844 225.648Z" transform="translate(202)" fill="#D9E9FB"/>
</svg>
