<svg width="62" height="62" viewBox="0 0 62 62" fill="none" xmlns="http://www.w3.org/2000/svg">
<path d="M3.1 0H1.03329C0.46294 0 0 0.46294 0 1.03329C0 1.60364 0.46294 2.06659 1.03329 2.06659H3.1C3.67035 2.06659 4.13329 1.60364 4.13329 1.03329C4.13329 0.46294 3.67047 0 3.1 0Z" transform="translate(41.3333 20.6665)" fill="#D9E9FB"/>
<path d="M3.1 0H1.03329C0.46294 0 0 0.46294 0 1.03329C0 1.60364 0.46294 2.06659 1.03329 2.06659H3.1C3.67035 2.06659 4.13329 1.60364 4.13329 1.03329C4.13341 0.46294 3.67047 0 3.1 0Z" transform="translate(41.3333 24.7998)" fill="#D9E9FB"/>
<path d="M3.1 0H1.03329C0.46294 0 0 0.46294 0 1.03329C0 1.60364 0.46294 2.06659 1.03329 2.06659H3.1C3.67035 2.06659 4.13329 1.60364 4.13329 1.03329C4.13341 0.46294 3.67047 0 3.1 0Z" transform="translate(41.3333 16.5332)" fill="#D9E9FB"/>
<path d="M3.1 0H1.03329C0.46294 0 0 0.46294 0 1.03329C0 1.60364 0.46294 2.06658 1.03329 2.06658H3.1C3.67035 2.06658 4.13329 1.60364 4.13329 1.03329C4.13329 0.46294 3.67047 0 3.1 0Z" transform="translate(41.3333 49.6001)" fill="#D9E9FB"/>
<path d="M7.23329 0H1.03329C0.462941 0 0 0.46294 0 1.03329V15.5C0 16.0703 0.462941 16.5333 1.03329 16.5333H7.23329C7.80364 16.5333 8.26659 16.0703 8.26659 15.5V1.03341C8.26659 0.462941 7.80364 0 7.23329 0ZM6.2 14.4667H2.06671V2.06671H6.2V14.4667Z" transform="translate(14.4667 16.5332)" fill="#D9E9FB"/>
<path d="M7.23329 0H1.03329C0.462941 0 0 0.46294 0 1.03329C0 1.60364 0.462941 2.06658 1.03329 2.06658H7.23329C7.80364 2.06658 8.26659 1.60364 8.26659 1.03329C8.26659 0.46294 7.80364 0 7.23329 0Z" transform="translate(14.4667 49.6001)" fill="#D9E9FB"/>
<path d="M7.23329 0H1.03329C0.462941 0 0 0.46294 0 1.03329C0 1.60364 0.462941 2.06659 1.03329 2.06659H7.23329C7.80364 2.06659 8.26659 1.60364 8.26659 1.03329C8.26659 0.46294 7.80364 0 7.23329 0Z" transform="translate(14.4667 53.7334)" fill="#D9E9FB"/>
<path d="M3.1 0H1.03329C0.46294 0 0 0.46294 0 1.03329C0 1.60364 0.46294 2.06659 1.03329 2.06659H3.1C3.67035 2.06659 4.13329 1.60364 4.13329 1.03329C4.13341 0.46294 3.67047 0 3.1 0Z" transform="translate(41.3333 53.7334)" fill="#D9E9FB"/>
<path d="M5.16659 0H1.0333C0.462944 0 0 0.46294 0 1.03329C0 1.60364 0.462944 2.06659 1.0333 2.06659H5.16659C5.73694 2.06659 6.19988 1.60364 6.19988 1.03329C6.2 0.46294 5.73706 0 5.16659 0Z" transform="translate(51.6667 53.7334)" fill="#D9E9FB"/>
<path d="M6.19988 1.03329C6.19988 0.462942 5.73694 0 5.16659 0H1.03329C0.46294 0 0 0.462942 0 1.03329V15.5C0 16.0704 0.46294 16.5333 1.03329 16.5333H5.16659C5.73694 16.5333 6.19988 16.0704 6.19988 15.5V1.03329ZM4.13329 14.4666H2.06659V2.06659H4.13329V14.4666Z" transform="translate(28.9334 16.5332)" fill="#D9E9FB"/>
<path d="M5.16659 0H1.0333C0.462944 0 0 0.46294 0 1.03329C0 1.60364 0.462944 2.06658 1.0333 2.06658H5.16659C5.73694 2.06658 6.19988 1.60364 6.19988 1.03329C6.19988 0.46294 5.73706 0 5.16659 0Z" transform="translate(51.6667 49.6001)" fill="#D9E9FB"/>
<path d="M5.16659 0H1.03329C0.46294 0 0 0.46294 0 1.03329C0 1.60364 0.46294 2.06659 1.03329 2.06659H5.16659C5.73694 2.06659 6.19988 1.60364 6.19988 1.03329C6.19988 0.46294 5.73694 0 5.16659 0Z" transform="translate(28.9334 53.7334)" fill="#D9E9FB"/>
<path d="M1.0333 12.3999C1.60365 12.3999 2.06659 11.9369 2.06659 11.3666V1.03329C2.06659 0.462942 1.60365 0 1.0333 0C0.462944 0 0 0.462942 0 1.03329V11.3666C0 11.9369 0.462944 12.3999 1.0333 12.3999Z" transform="translate(51.6667 24.8003)" fill="#D9E9FB"/>
<path d="M2.06659 1.03329C2.06659 0.46294 1.60365 0 1.0333 0C0.462944 0 0 0.46294 0 1.03329V11.3666C0 11.9369 0.462944 12.3999 1.0333 12.3999C1.60365 12.3999 2.06659 11.9369 2.06659 11.3666V1.03329Z" transform="translate(55.8001 24.7998)" fill="#D9E9FB"/>
<path d="M58.9 8.26671H52.7C52.1297 8.26671 51.6667 8.72965 51.6667 9.3C51.6667 9.87035 52.1297 10.3333 52.7 10.3333H58.9C59.4694 10.3333 59.9333 10.7972 59.9333 11.3666V58.9C59.9333 59.4694 59.4694 59.9333 58.9 59.9333H49.6V16.5333H55.8C56.3703 16.5333 56.8333 16.0704 56.8333 15.5C56.8333 14.9296 56.3703 14.4667 55.8 14.4667H49.6V5.16671C49.6 3.42865 48.2381 2.06671 46.5 2.06671H40.3C38.5909 2.06671 37.2 3.45759 37.2 5.16671V59.9334H26.8667V6.2H34.1C34.6704 6.2 35.1333 5.73706 35.1333 5.16671C35.1333 4.59636 34.6704 4.13341 34.1 4.13341H26.8667V3.1C26.8667 1.36194 25.5048 0 23.7667 0H13.4334C11.7243 0 10.3334 1.39088 10.3334 3.1V12.4H5.16671C4.59636 12.4 4.13341 12.8629 4.13341 13.4333C4.13341 14.0036 4.59636 14.4666 5.16671 14.4666H10.3334V59.9333H3.1C2.53062 59.9333 2.06671 59.4694 2.06671 58.9V9.3C2.06671 8.73062 2.53062 8.26671 3.1 8.26671H7.23329C7.80364 8.26671 8.26659 7.80377 8.26659 7.23341C8.26659 6.66306 7.80377 6.2 7.23329 6.2H3.1C1.39088 6.2 0 7.59088 0 9.3V58.9C0 60.6091 1.39088 62 3.1 62H58.9C60.6091 62 62 60.6091 62 58.9V11.3667C62 9.65759 60.6091 8.26671 58.9 8.26671ZM24.8 59.9333H12.4V8.26671H21.7C22.2704 8.26671 22.7333 7.80377 22.7333 7.23341C22.7333 6.66306 22.2704 6.2 21.7 6.2H12.4V3.1C12.4 2.52032 12.8536 2.06671 13.4333 2.06671H23.7666C24.3556 2.06671 24.7999 2.511 24.7999 3.1V59.9333H24.8ZM47.5333 59.9333H39.2666V10.3333H44.4333C45.0036 10.3333 45.4666 9.87035 45.4666 9.3C45.4666 8.72965 45.0036 8.26671 44.4333 8.26671H39.2666V5.16671C39.2666 4.58703 39.7202 4.13341 40.2999 4.13341H46.5C47.089 4.13341 47.5333 4.57771 47.5333 5.16671V59.9333Z" fill="#D9E9FB"/>
<path d="M3.09988 0H1.03329C0.462941 0 0 0.46294 0 1.03329C0 1.60364 0.462941 2.06658 1.03329 2.06658H3.1C3.67035 2.06658 4.13329 1.60364 4.13329 1.03329C4.13329 0.46294 3.67035 0 3.09988 0Z" transform="translate(4.13341 49.6001)" fill="#D9E9FB"/>
<path d="M3.09988 0H1.03329C0.462941 0 0 0.46294 0 1.03329C0 1.60364 0.462941 2.06659 1.03329 2.06659H3.1C3.67035 2.06659 4.13329 1.60364 4.13329 1.03329C4.13329 0.46294 3.67035 0 3.09988 0Z" transform="translate(4.13341 53.7334)" fill="#D9E9FB"/>
<path d="M5.16659 0H1.03329C0.46294 0 0 0.46294 0 1.03329C0 1.60364 0.46294 2.06658 1.03329 2.06658H5.16659C5.73694 2.06658 6.19988 1.60364 6.19988 1.03329C6.19988 0.46294 5.73694 0 5.16659 0Z" transform="translate(28.9334 49.6001)" fill="#D9E9FB"/>
<path d="M3.09988 0H1.03329C0.462941 0 0 0.46294 0 1.03329C0 1.60364 0.462941 2.06659 1.03329 2.06659H3.1C3.67035 2.06659 4.13329 1.60364 4.13329 1.03329C4.13329 0.46294 3.67035 0 3.09988 0Z" transform="translate(4.13341 24.7998)" fill="#D9E9FB"/>
<path d="M3.09988 0H1.03329C0.462941 0 0 0.462942 0 1.03329C0 1.60365 0.46282 2.06671 1.03329 2.06671H3.1C3.67035 2.06671 4.13329 1.60377 4.13329 1.03341C4.13329 0.463062 3.67035 0 3.09988 0Z" transform="translate(4.13341 28.9331)" fill="#D9E9FB"/>
</svg>
