<svg width="24" height="26" viewBox="0 0 24 26" fill="none" xmlns="http://www.w3.org/2000/svg">
<path d="M6.84003 17.119H21.0701C22.6837 17.119 24 15.7938 24 14.1694V8.14189C24 8.13654 24 8.12586 24 8.12051C24 8.10448 24 8.09379 24 8.07776C24 8.06708 24 8.05639 23.9947 8.0457C23.9947 8.03502 23.9894 8.01899 23.9894 8.0083C23.9894 7.99761 23.9841 7.98692 23.9841 7.97624C23.9788 7.96555 23.9788 7.95486 23.9735 7.93883C23.9682 7.92814 23.9682 7.91746 23.9628 7.90677C23.9575 7.89608 23.9575 7.8854 23.9522 7.87471C23.9469 7.86402 23.9416 7.85334 23.9363 7.83731C23.931 7.82662 23.9257 7.81593 23.9204 7.81059C23.9151 7.7999 23.9098 7.78921 23.9045 7.77853C23.8992 7.76784 23.8938 7.7625 23.8885 7.75181C23.8832 7.74112 23.8726 7.73043 23.8673 7.71975C23.862 7.70906 23.8567 7.70372 23.8461 7.69303C23.8408 7.68234 23.8302 7.677 23.8248 7.66631C23.8195 7.65562 23.8089 7.65028 23.8036 7.63959C23.7983 7.62891 23.7877 7.62356 23.7824 7.61822C23.7718 7.60753 23.7665 7.60219 23.7558 7.5915C23.7452 7.58616 23.7399 7.57547 23.7293 7.57013C23.7187 7.56478 23.7081 7.5541 23.6975 7.54875C23.6868 7.54341 23.6815 7.53807 23.6709 7.53272C23.6603 7.52738 23.6497 7.52204 23.6391 7.51135C23.6285 7.50601 23.6178 7.50066 23.6072 7.49532C23.5966 7.48997 23.586 7.48463 23.5754 7.47929C23.5648 7.47394 23.5541 7.4686 23.5435 7.46326C23.5329 7.45791 23.5223 7.45791 23.5117 7.45257C23.5011 7.44723 23.4851 7.44188 23.4745 7.44188C23.4639 7.44188 23.4533 7.43654 23.448 7.43654C23.4321 7.4312 23.4215 7.4312 23.4055 7.4312C23.4002 7.4312 23.3949 7.42585 23.3843 7.42585L5.34856 4.91973V2.38689C5.34856 2.36018 5.34856 2.33346 5.34325 2.31208C5.34325 2.30674 5.34325 2.3014 5.33794 2.29071C5.33794 2.27468 5.33263 2.25865 5.33263 2.24262C5.32733 2.22659 5.32733 2.2159 5.32202 2.19987C5.32202 2.18918 5.31671 2.18384 5.31671 2.17315C5.3114 2.15712 5.30609 2.14109 5.30079 2.12506C5.30079 2.11972 5.29548 2.10903 5.29548 2.10369C5.29017 2.08765 5.28486 2.07697 5.27425 2.06094C5.26894 2.05559 5.26894 2.04491 5.26363 2.03956C5.25833 2.02888 5.25302 2.01819 5.2424 2.0075C5.23709 1.99681 5.23179 1.99147 5.22648 1.98078C5.22117 1.9701 5.21586 1.96475 5.21056 1.95407C5.20525 1.94338 5.19463 1.93269 5.18932 1.922C5.18402 1.91666 5.17871 1.91132 5.1734 1.90597C5.16279 1.89529 5.15217 1.8846 5.14155 1.87391C5.13625 1.86857 5.13094 1.86323 5.12563 1.85788C5.11502 1.8472 5.1044 1.83651 5.08848 1.82582C5.08317 1.82048 5.07255 1.81513 5.06725 1.80979C5.05663 1.7991 5.04601 1.79376 5.0354 1.78307C5.01948 1.77239 5.00355 1.7617 4.99294 1.75635C4.98763 1.75101 4.98232 1.75101 4.97701 1.74567C4.95578 1.73498 4.92924 1.72429 4.90801 1.71361L0.996199 0.0571091C0.629964 -0.0978536 0.210651 0.0731397 0.0567266 0.441844C-0.0971982 0.810548 0.0726499 1.23269 0.438885 1.38765L3.91016 2.86247V6.13271V6.65104V10.6266V14.1801V18.6687C3.91016 20.1649 5.02478 21.4046 6.46318 21.5916C6.2031 22.0297 6.04918 22.5427 6.04918 23.0878C6.04918 24.6962 7.34958 26 8.94191 26C10.5342 26 11.8346 24.6908 11.8346 23.0878C11.8346 22.5534 11.6913 22.0458 11.4365 21.6183H17.8802C17.6254 22.0511 17.4821 22.5534 17.4821 23.0878C17.4821 24.6962 18.7825 26 20.3748 26C21.9671 26 23.2675 24.6908 23.2675 23.0878C23.2675 21.4847 21.9671 20.1755 20.3748 20.1755H6.84003C6.01203 20.1755 5.34325 19.4969 5.34325 18.6687V16.7129C5.77848 16.9694 6.29334 17.119 6.84003 17.119ZM10.4068 23.0824C10.4068 23.8946 9.74868 24.5519 8.94721 24.5519C8.14574 24.5519 7.48758 23.8893 7.48758 23.0824C7.48758 22.2756 8.14574 21.613 8.94721 21.613C9.74868 21.613 10.4068 22.2702 10.4068 23.0824ZM21.8397 23.0824C21.8397 23.8946 21.1816 24.5519 20.3801 24.5519C19.5786 24.5519 18.9205 23.8893 18.9205 23.0824C18.9205 22.2756 19.5786 21.613 20.3801 21.613C21.1816 21.613 21.8397 22.2702 21.8397 23.0824ZM21.0701 15.6763H6.84003C6.01203 15.6763 5.34325 14.9977 5.34325 14.1694V10.6159V6.64035V6.37317L22.5669 8.76174V14.1641C22.5669 15.003 21.8928 15.6763 21.0701 15.6763Z" fill="#F47E00"/>
</svg>
