<svg width="55" height="55" viewBox="0 0 55 55" fill="none" xmlns="http://www.w3.org/2000/svg">
<path d="M42.396 0H3.43751C1.53904 0 0 1.53903 0 3.4375V30.9375C0 32.836 1.53904 34.375 3.43751 34.375H18.3334V32.0834H3.43751C2.80469 32.0834 2.29164 31.5703 2.29164 30.9375V3.4375C2.29164 2.80468 2.80469 2.29163 3.43751 2.29163H42.396C43.0289 2.29163 43.5419 2.80468 43.5419 3.4375V24.0625H45.8335V3.4375C45.8335 1.53903 44.2945 0 42.396 0Z" fill="#D9E9FB"/>
<path d="M2.29164 0H0V6.875H2.29164V0Z" transform="translate(13.7501 33.229)" fill="#D9E9FB"/>
<path d="M3.43751 3.4375C2.80469 3.4375 2.29164 2.92445 2.29164 2.29163V0H0V2.29163C0 4.1901 1.53904 5.72913 3.43751 5.72913H5.72915V3.4375H3.43751Z" transform="translate(4.58337 24.0625)" fill="#D9E9FB"/>
<path d="M2.29164 0H0V2.29163H2.29164V0Z" transform="translate(4.58337 19.479)" fill="#D9E9FB"/>
<path d="M21.2535 3.64719C18.9186 1.31184 15.7514 -0.000107415 12.4491 6.59625e-09C5.57339 0.000322272 -0.000214838 5.57434 6.21097e-09 12.45C0.000322273 19.3256 5.57436 24.8992 12.45 24.899C15.7513 24.8989 18.9173 23.5876 21.2519 21.2534C26.1141 16.392 26.1149 8.50953 21.2535 3.64719ZM12.4432 22.6084C6.83313 22.6065 2.28681 18.0572 2.28874 12.4472C2.29067 6.83719 6.84001 2.29088 12.45 2.29281C15.1464 2.28551 17.7335 3.35844 19.6332 5.27194C21.5366 7.17739 22.6053 9.76078 22.6044 12.4541C22.6025 18.0641 18.0532 22.6104 12.4432 22.6084Z" transform="translate(20.6235 20.6235)" fill="#D9E9FB"/>
<path d="M12.345 7.52576L5.15251 0.335693C4.93766 0.12085 4.64623 0 4.34244 0C4.03854 0.000107422 3.74721 0.12085 3.53237 0.335693L0.33548 3.53257C-0.111827 3.97998 -0.111827 4.7053 0.33548 5.15281L7.52794 12.3463C7.74278 12.5613 8.03422 12.682 8.33801 12.682C8.64234 12.681 8.93388 12.559 9.14808 12.3429L12.345 9.14601C12.7923 8.69849 12.7923 7.97318 12.345 7.52576ZM8.3379 9.91601L2.76569 4.34264L4.34233 2.76601L9.91454 8.33938L8.3379 9.91601Z" transform="translate(42.3195 42.3179)" fill="#D9E9FB"/>
<path d="M2.29164 0H0V5.65126H2.29164V0Z" transform="translate(40.2564 41.8765) rotate(-45)" fill="#D9E9FB"/>
<path d="M0 0V2.29163C3.16262 2.29539 5.72539 4.85826 5.72915 8.02076H8.02079C8.01585 3.59315 4.42773 0.00504883 0 0Z" transform="translate(33.2292 25.2085)" fill="#D9E9FB"/>
<path d="M9.16667 0H0V2.29163H9.16667V0Z" transform="translate(11.4584 38.9585)" fill="#D9E9FB"/>
<path d="M3.43751 0C1.53904 0 0 1.53903 0 3.4375C0 5.33597 1.53904 6.875 3.43751 6.875C5.33599 6.875 6.87503 5.33597 6.87503 3.4375C6.87503 1.53903 5.33599 0 3.43751 0ZM3.43751 4.58326C2.80469 4.58326 2.29164 4.07021 2.29164 3.43739C2.29164 2.80457 2.80469 2.29152 3.43751 2.29152C4.07034 2.29152 4.58339 2.80457 4.58339 3.43739C4.58339 4.07032 4.07034 4.58326 3.43751 4.58326Z" transform="translate(13.7501 4.5835)" fill="#D9E9FB"/>
<path d="M3.43751 0C1.53904 0 0 1.53903 0 3.4375C0 5.33597 1.53904 6.875 3.43751 6.875C5.33599 6.875 6.87503 5.33597 6.87503 3.4375C6.87503 1.53903 5.33599 0 3.43751 0ZM3.43751 4.58337C2.80469 4.58337 2.29164 4.07032 2.29164 3.4375C2.29164 2.80468 2.80469 2.29163 3.43751 2.29163C4.07034 2.29163 4.58339 2.80468 4.58339 3.4375C4.58328 4.07032 4.07034 4.58337 3.43751 4.58337Z" transform="translate(21.771 12.604)" fill="#D9E9FB"/>
<path d="M8.1022 0H0V2.29164H8.1022V0Z" transform="translate(9.50226 14.0859) rotate(-45)" fill="#D9E9FB"/>
<path d="M2.29163 0H0V8.1022H2.29163V0Z" transform="translate(17.5182 9.97998) rotate(-45)" fill="#D9E9FB"/>
<path d="M3.43751 0C1.53904 0 0 1.53903 0 3.4375C0 5.33597 1.53904 6.875 3.43751 6.875C5.33599 6.875 6.87503 5.33597 6.87503 3.4375C6.87513 1.53903 5.33609 0 3.43751 0ZM3.43751 4.58326C2.80469 4.58326 2.29164 4.07021 2.29164 3.43739C2.29164 2.80457 2.80469 2.29152 3.43751 2.29152C4.07034 2.29152 4.58339 2.80457 4.58339 3.43739C4.58339 4.07032 4.07034 4.58326 3.43751 4.58326Z" transform="translate(29.7917 4.5835)" fill="#D9E9FB"/>
<path d="M8.1022 0H0V2.29164H8.1022V0Z" transform="translate(25.5434 14.0898) rotate(-45)" fill="#D9E9FB"/>
</svg>
