<svg width="32" height="32" viewBox="0 0 32 32" fill="none" xmlns="http://www.w3.org/2000/svg">
<path d="M23.128 31.059H7.931C3.558 31.059 0 27.5 0 23.127V7.93C0 3.557 3.558 0 7.931 0H23.128C27.501 0 31.059 3.557 31.059 7.93V23.127C31.059 27.5 27.501 31.059 23.128 31.059ZM7.931 1.774C4.536 1.774 1.775 4.535 1.775 7.929V23.126C1.775 26.521 4.537 29.282 7.931 29.282H23.128C26.523 29.282 29.283 26.52 29.283 23.126V7.93C29.283 4.535 26.522 1.775 23.128 1.775H7.931V1.774Z" fill="white"/>
<path d="M11.827 1.776H0.888C0.398 1.776 0 1.378 0 0.888C0 0.398 0.397 0 0.888 0H11.826C12.316 0 12.714 0.397 12.714 0.888C12.715 1.378 12.317 1.776 11.827 1.776Z" transform="translate(18.344 9.87799)" fill="white"/>
<path d="M11.597 1.775H0.887C0.397 1.775 0 1.377 0 0.888C0 0.398 0.397 0 0.887 0H11.597C12.087 0 12.485 0.397 12.485 0.888C12.484 1.377 12.087 1.775 11.597 1.775Z" transform="translate(0 9.87903)" fill="white"/>
<path d="M6.922 13.843C3.106 13.843 0 10.739 0 6.922C0 3.105 3.105 0 6.922 0C10.738 0 13.843 3.104 13.843 6.922C13.843 10.739 10.739 13.843 6.922 13.843ZM6.922 1.775C4.084 1.775 1.774 4.085 1.774 6.923C1.774 9.761 4.084 12.069 6.922 12.069C9.76 12.069 12.068 9.761 12.068 6.923C12.068 4.085 9.76 1.775 6.922 1.775Z" transform="translate(8.60706 8.60699)" fill="white"/>
<path d="M4.881 5.768H0.887999C0.397999 5.768 0 5.371 0 4.881V0.887C0 0.397 0.397999 0 0.887999 0H4.881C5.371 0 5.768 0.397 5.768 0.887V4.881C5.767 5.372 5.371 5.768 4.881 5.768ZM1.774 3.993H3.993V1.775H1.774V3.993Z" transform="translate(20.676 3.59302)" fill="white"/>
</svg>
