<svg width="119" height="49" viewBox="0 0 119 49" fill="none" xmlns="http://www.w3.org/2000/svg">
<path d="M0 0.161H2.67V10.385H0V0.161ZM4.644 0.161H7.546L10.506 6.141L13.453 0.161H16.355V10.385H13.992L13.978 3.909L11.368 9.364H9.646L7.021 3.909V10.385H4.644V0.161ZM22.837 0.161C24.1403 0.161 25.1517 0.477 25.871 1.109C26.591 1.731 26.951 2.611 26.951 3.749C26.951 4.95433 26.591 5.89267 25.871 6.564C25.151 7.22467 24.1397 7.555 22.837 7.555H21.014V10.385H18.345V0.161H22.837ZM22.707 5.426C23.251 5.426 23.6687 5.29 23.96 5.018C24.262 4.74533 24.413 4.35133 24.413 3.836C24.413 3.34 24.262 2.961 23.96 2.699C23.6687 2.42633 23.2507 2.29 22.706 2.29H21.014V5.426H22.706H22.707ZM35.001 10.385L34.301 8.576H29.881L29.167 10.385H26.425L30.815 0.161H33.557L37.845 10.385H35.001ZM30.683 6.535H33.513L32.113 2.888L30.683 6.534V6.535ZM45.879 3.632C45.549 3.214 45.1557 2.88333 44.699 2.64C44.2417 2.38733 43.7893 2.261 43.342 2.261C42.8267 2.261 42.355 2.39233 41.927 2.655C41.509 2.90767 41.1783 3.26267 40.935 3.72C40.6923 4.16667 40.571 4.66733 40.571 5.222C40.571 5.776 40.6923 6.28167 40.935 6.739C41.1783 7.18567 41.509 7.54033 41.927 7.803C42.355 8.05633 42.8267 8.183 43.342 8.183C43.76 8.183 44.1973 8.076 44.654 7.862C45.1113 7.648 45.5197 7.35633 45.879 6.987L47.44 8.664C46.886 9.24733 46.2247 9.714 45.456 10.064C44.698 10.404 43.9447 10.574 43.196 10.574C42.1847 10.574 41.2707 10.3407 40.454 9.874C39.6373 9.40733 38.9957 8.77067 38.529 7.964C38.0623 7.15733 37.829 6.253 37.829 5.251C37.829 4.259 38.067 3.36433 38.543 2.567C39.0197 1.76967 39.6713 1.14267 40.498 0.686C41.334 0.228667 42.2673 0 43.298 0C44.0567 0 44.8053 0.160667 45.544 0.482C46.2827 0.792667 46.9097 1.22033 47.425 1.765L45.879 3.632ZM47.679 0.161H56.445V2.363H53.382V10.385H50.712V2.363H47.679V0.161Z" transform="translate(62.0883 6.55322)" fill="#692323"/>
<path d="M4.4825 0.361668C4.93783 0.279001 5.23783 0.227334 5.38249 0.206667C5.52716 0.186667 5.6305 0.186667 5.6925 0.206667C5.7545 0.227334 5.79583 0.268668 5.8165 0.330668C5.8585 0.372001 6.02416 0.423667 6.31349 0.485667C6.60283 0.548333 7.00617 0.600333 7.5235 0.641667C8.57817 0.703667 9.3125 0.869 9.7265 1.13767C10.1198 1.365 10.5645 1.83033 11.0605 2.53367C11.5565 3.237 11.8458 3.80567 11.9285 4.23967C12.0532 4.77767 12.0015 5.34667 11.7735 5.94667C11.5462 6.54667 11.1945 7.06367 10.7185 7.49767L9.8505 8.30467L10.3775 8.64567C11.4735 9.39034 12.0425 10.166 12.0845 10.9727C12.1258 12.1307 12.0118 12.9993 11.7425 13.5787C11.4945 14.1373 10.8328 14.9337 9.75749 15.9677C8.88883 16.8363 8.20616 17.4257 7.7095 17.7357C7.21283 18.0257 6.39616 18.336 5.25949 18.6667C4.49349 18.894 3.51083 19.1007 2.3115 19.2867C1.13216 19.4733 0.490833 19.515 0.387499 19.4117C0.346166 19.3703 0.418495 19.2563 0.604495 19.0697C0.791161 18.8837 1.00849 18.708 1.25649 18.5427C1.52516 18.356 1.71116 18.2627 1.81449 18.2627C1.95916 18.2627 2.1145 18.2113 2.2805 18.1087C2.4665 18.0047 2.61116 17.9013 2.7145 17.7987C2.8385 17.674 2.87983 17.5807 2.8385 17.5187C2.7765 17.4567 2.34216 17.5083 1.53549 17.6737C0.728828 17.8183 0.253167 17.8287 0.1085 17.7047C-0.0361667 17.5393 -0.0361667 16.7637 0.1085 15.3777C0.273833 13.9923 0.532493 12.462 0.884493 10.7867C2.00116 5.388 2.7145 2.306 3.0245 1.54067C3.27317 0.940667 3.60416 0.578666 4.0175 0.454666C4.10016 0.434666 4.25517 0.403668 4.4825 0.361668ZM8.29849 4.11567C7.74049 3.80567 7.22383 3.816 6.7485 4.14667C6.54117 4.31267 6.4065 4.706 6.3445 5.32667C6.2825 5.926 6.3445 6.25667 6.5305 6.31867C6.69583 6.38067 7.10949 6.19467 7.77149 5.76067C8.82616 5.05733 9.00183 4.509 8.29849 4.11567ZM7.5545 12.3997C7.82317 11.9443 7.58516 11.6547 6.84049 11.5307C6.13716 11.4067 5.67183 11.448 5.4445 11.6547C5.27917 11.8613 5.17583 12.306 5.13449 12.9887C5.09316 13.6507 5.14483 14.0023 5.2895 14.0437C5.4135 14.085 5.7755 13.8883 6.3755 13.4537C6.9755 13.0203 7.3685 12.669 7.5545 12.3997ZM13.7665 0.206667C13.9312 5.06639e-07 14.3345 -0.0516668 14.9765 0.0516665C15.6165 0.155 16.2058 0.372334 16.7445 0.703667C17.1372 0.910334 17.4162 1.13767 17.5815 1.38567C17.7468 1.613 17.9435 2.04733 18.1715 2.68867C18.6055 3.868 18.8845 4.58133 19.0085 4.82867C19.1332 5.05667 19.2575 5.15 19.3815 5.10867C19.4848 5.06733 19.9295 4.42633 20.7155 3.18567C21.5015 1.92367 21.9875 1.241 22.1735 1.13767C22.2768 1.07567 22.5562 1.03433 23.0115 1.01367C23.4662 0.993 23.9625 1.03433 24.5005 1.13767C25.0585 1.241 25.4412 1.40633 25.6485 1.63367C25.8552 1.903 25.9585 2.19267 25.9585 2.50267C25.9585 2.792 25.8862 3.05067 25.7415 3.27867C25.6175 3.50533 25.4828 3.75333 25.3375 4.02267C25.2135 4.292 25.1515 4.50933 25.1515 4.67467C25.1515 4.778 25.0895 4.94333 24.9655 5.17067C24.8622 5.37733 24.6452 5.791 24.3145 6.41167C23.9832 7.03167 23.6418 7.69367 23.2905 8.39767L22.0185 11.0037C21.7492 11.5203 21.6145 11.8513 21.6145 11.9967C21.6145 12.286 21.0768 13.5477 20.0015 15.7817C19.5055 16.815 18.6472 17.849 17.4265 18.8837C16.2065 19.9177 15.2965 20.3933 14.6965 20.3107C14.5098 20.2907 14.3755 20.2183 14.2935 20.0937C14.2315 19.9697 14.1898 19.7113 14.1685 19.3187C14.1485 19.0493 14.1485 18.8113 14.1685 18.6047C14.1898 18.3773 14.2212 18.2017 14.2625 18.0777C14.3038 17.953 14.3762 17.7563 14.4795 17.4877C14.5828 17.1983 14.6655 16.9397 14.7275 16.7117C14.9962 15.8017 15.6062 14.2507 16.5575 12.0587C16.7235 11.6653 16.8065 11.324 16.8065 11.0347C16.8065 10.7247 16.7545 10.497 16.6505 10.3517C16.5678 10.1863 16.4438 9.96933 16.2785 9.70067C16.1132 9.43134 15.9892 9.16233 15.9065 8.89367C15.8238 8.66633 15.6478 8.325 15.3785 7.86967C15.1098 7.415 14.9032 7.00167 14.7585 6.62967C14.7585 6.60833 14.7482 6.577 14.7275 6.53567C13.4448 3.14367 13.1242 1.034 13.7655 0.206667H13.7665ZM33.6165 0.765667C34.9605 0.537667 36.0152 0.372001 36.7805 0.268667C37.5672 0.144667 38.1878 0.0723332 38.6425 0.0516665C39.0972 0.0316665 39.3972 0.0626669 39.5425 0.144667C39.7078 0.206667 39.8008 0.320333 39.8215 0.485667C39.9042 0.837667 40.1008 1.086 40.4115 1.23067C40.7422 1.35467 41.3315 1.41667 42.1795 1.41667C43.1102 1.41667 43.6788 1.49933 43.8855 1.66467C44.1128 1.81 44.1852 2.19267 44.1025 2.81267C44.0405 3.33 43.8545 3.72334 43.5445 3.99267C43.2338 4.24067 42.6338 4.54033 41.7445 4.89167C40.8345 5.243 39.2732 5.62567 37.0605 6.03967C36.1498 6.205 35.5912 6.422 35.3845 6.69067C35.1778 6.96 35.0745 7.622 35.0745 8.67667C35.0745 9.69 34.9918 11.4583 34.8265 13.9817C34.6612 16.505 34.5785 17.8703 34.5785 18.0777C34.5785 18.4083 34.5368 18.615 34.4535 18.6977C34.3708 18.7803 34.2055 18.863 33.9575 18.9457C33.7302 19.0077 33.5025 19.1527 33.2745 19.3807C33.0885 19.546 32.9438 19.639 32.8405 19.6597C32.7578 19.6797 32.6855 19.6693 32.6235 19.6287C32.5615 19.5873 32.4272 19.494 32.2205 19.3487C32.0138 19.204 31.7758 19.0697 31.5065 18.9457C31.1758 18.8217 30.9382 18.584 30.7935 18.2327C30.6482 17.8807 30.5755 17.3633 30.5755 16.6807C30.5755 15.9987 30.5962 15.306 30.6375 14.6027C30.6788 13.8787 30.7412 12.8653 30.8245 11.5627C30.9072 10.2593 30.9588 9.03867 30.9795 7.90067C30.9995 6.86733 30.9892 6.23667 30.9485 6.00867C30.9072 5.76067 30.7725 5.54333 30.5445 5.35667C30.3172 5.17067 29.9968 5.03633 29.5835 4.95367C29.1902 4.85033 28.8385 4.778 28.5285 4.73667C28.2385 4.67467 27.9695 4.51967 27.7215 4.27167C27.4942 4.023 27.3805 3.661 27.3805 3.18567C27.3805 2.64767 27.5148 2.27533 27.7835 2.06867C28.0728 1.84067 28.6728 1.644 29.5835 1.47867L33.6165 0.765667ZM53.3655 0.548666C53.5102 0.403333 53.9755 0.351333 54.7615 0.392666C55.5682 0.413333 56.0335 0.496333 56.1575 0.641667C56.2608 0.765667 56.3332 1.04467 56.3745 1.47867C56.4365 1.91333 56.4572 2.358 56.4365 2.81267C56.4158 2.95733 56.3538 3.08167 56.2505 3.18567C56.1678 3.289 56.0745 3.37167 55.9705 3.43367C55.8678 3.475 55.6922 3.54733 55.4435 3.65067C55.1955 3.73333 54.9888 3.816 54.8235 3.89867C54.4102 4.10533 53.3968 4.364 51.7835 4.67467C51.4522 4.73667 51.1935 4.86067 51.0075 5.04667C50.8208 5.23333 50.7795 5.41967 50.8835 5.60567C50.9868 5.771 51.4728 5.81233 52.3415 5.72967C53.1068 5.647 53.5928 5.678 53.7995 5.82267C54.0062 5.96733 54.1095 6.33967 54.1095 6.93967C54.1095 7.31167 54.0682 7.59067 53.9855 7.77667C53.9028 7.942 53.7272 8.13867 53.4585 8.36666C53.0238 8.718 52.6928 8.89367 52.4655 8.89367C52.2382 8.89367 51.8968 9.03867 51.4415 9.32867L50.7585 9.73167L50.8215 11.3447C50.8415 12.2547 50.9345 12.8027 51.1005 12.9887C51.2865 13.1547 51.6072 13.01 52.0625 12.5547C52.3932 12.224 52.9098 11.8207 53.6125 11.3447C54.3165 10.8693 54.8132 10.5797 55.1025 10.4757C55.3092 10.4137 55.4332 10.4137 55.4745 10.4757C55.5365 10.517 55.5675 10.6413 55.5675 10.8487C55.5675 11.2 55.6708 11.4583 55.8775 11.6237C56.0228 11.7277 56.1058 11.9243 56.1265 12.2137C56.1678 12.503 56.1778 13.02 56.1565 13.7647L56.0955 15.6267L55.0715 16.5567C54.2648 17.2807 53.5718 17.767 52.9925 18.0157C52.4345 18.2423 51.7108 18.3457 50.8215 18.3257C50.2008 18.305 49.7042 18.2637 49.3315 18.2017C48.9802 18.119 48.5768 17.9637 48.1215 17.7357C47.3562 17.3423 46.8598 16.97 46.6325 16.6187C46.3638 16.2253 46.1158 15.6567 45.8885 14.9127C45.6818 14.168 45.5678 13.506 45.5465 12.9267C45.5265 12.3687 45.6508 11.1587 45.9195 9.29667C46.1882 7.43533 46.4465 5.97733 46.6945 4.92267C46.8812 4.09534 47.0572 3.49533 47.2225 3.12267C47.4085 2.75067 47.7495 2.26467 48.2455 1.66467C48.6388 1.21 48.9698 0.941334 49.2385 0.858668C49.5078 0.755334 49.8285 0.807 50.2005 1.01367C50.4278 1.13767 50.9552 1.13767 51.7825 1.01367C52.6305 0.889666 53.1582 0.734333 53.3655 0.547667V0.548666Z" transform="translate(62.0888 22.1274)" fill="#692323"/>
<path d="M42.9903 0C31.2133 1.837 20.4373 7.396 9.92525 12.737C4.99525 15.574 -0.477746 20.3 0.0332541 26.568C0.493254 30.417 2.61025 34.11 5.49025 36.623C6.29425 37.213 7.84925 36.893 8.35625 36.821C5.92025 40.399 8.47425 45.122 11.6003 47.359C13.4143 48.919 16.1053 49.742 18.1423 48.108C22.1073 46.372 26.6103 45.516 30.2493 42.986C30.6363 45.148 33.2713 47.384 35.2343 45.412C42.3633 40.625 48.8533 34.695 53.1823 27.201C54.4893 24.873 56.8803 22.445 56.3753 19.615C55.2473 17.083 51.6153 17.279 49.6403 18.655C50.6663 15.361 54.0143 12.125 52.3823 8.487C50.6963 6.469 47.6933 6.695 45.4753 7.22C47.0293 4.766 46.7303 0.023 42.9903 0Z" fill="white"/>
<path d="M41.1807 0C40.8708 0.00655208 40.564 0.0639838 40.2727 0.17C37.3287 0.553 34.4347 1.356 31.6607 2.441C26.4607 4.071 21.4497 6.234 16.5827 8.679C10.8857 11.471 4.4127 13.975 1.0467 19.722C-1.5313 23.753 1.0917 28.08 4.1697 31.248C4.9277 33.143 7.3597 31.961 8.4207 30.244C10.1167 27.544 10.0547 31.976 11.1007 33.324C12.8717 32.642 12.3327 28.173 14.7547 29.689C15.6797 33.864 18.0977 28.095 19.9907 28.423C20.0287 30.533 19.9927 34.091 17.5087 34.696C15.2447 31.283 15.3417 36.884 12.3087 36.988C10.0227 35.63 6.5857 35.014 7.3307 38.59C7.3937 41.874 10.1727 44.182 12.8897 45.54C13.3357 45.766 13.8667 45.754 14.3297 45.591C18.5387 43.121 23.6547 42.584 27.7017 39.761C30.4467 36.937 29.3817 42.666 31.7057 42.81C35.1057 40.41 38.4337 37.902 41.5837 35.182C45.9587 30.785 49.5347 25.605 52.5207 20.177C54.5937 16.894 49.4007 17.273 47.9747 18.901C44.6197 20.644 46.1397 15.538 47.1867 14.163C47.9677 12.125 49.8047 10.111 49.1507 7.818C47.4577 6.1 44.7847 7.07 42.7207 7.521C40.2987 8.501 40.7547 6.12 41.9707 5.037C43.0567 3.53 43.3377 0 41.1807 0Z" transform="translate(1.85255 1.69824)" fill="#EF5350"/>
<path d="M41.177 0C40.8671 0.00655208 40.5603 0.0639838 40.269 0.17C37.325 0.553 34.431 1.356 31.657 2.441C26.457 4.071 21.446 6.234 16.579 8.679C10.882 11.471 4.409 13.975 1.043 19.722C0.396 20.733 0.0770002 21.763 0.0100002 22.789C0.00566987 22.8549 0.00233593 22.921 0 22.987C0.01 23.48 0.268 24.695 2.683 24.181C5.683 23.542 5.445 21.079 8.543 21.397C11.643 21.714 9.719 17.531 14.345 17.98C18.97 18.428 19.82 17.47 21.112 15.904C22.405 14.338 24.12 15.197 26.742 14.681C29.364 14.165 28.832 9.624 32.542 10.113C36.252 10.601 40.058 8.476 40.058 8.476C40.058 8.476 40.572 7.741 40.548 6.416C40.588 6.273 41.822 4.658 41.822 4.658C42.285 3.446 42.815 3.45 42.78 1.852C42.693 0.828 42.221 0 41.177 0Z" transform="translate(1.85625 1.69824)" fill="#692323"/>
<path d="M6.79019 0.000267717C3.04519 0.290268 -0.402812 3.75227 0.0381878 7.60027C1.34519 10.9753 6.51219 10.4173 8.49819 7.95027C10.4732 5.74727 10.2312 1.67827 7.60419 0.138266C7.34326 0.0427746 7.06701 -0.00399935 6.78919 0.000267717H6.79019Z" transform="translate(19.6051 12.0659)" fill="#692323"/>
<path fill-rule="evenodd" clip-rule="evenodd" d="M0.958 3.3411C10.834 -6.6889 19.346 8.50511 0.628 14.3541L2.816 8.4041L0 3.8551L0.958 3.3411Z" transform="translate(21.4252 23.1001)" fill="#692323"/>
<path d="M41.4548 0C41.1449 0.00655208 40.8381 0.0639838 40.5468 0.17C37.6028 0.553 34.7088 1.356 31.9348 2.441C26.7348 4.071 21.7238 6.234 16.8568 8.679C11.1598 11.471 5.6228 12.786 1.3208 19.722C-2.9802 26.657 4.3348 37.005 7.4308 32.379C9.1268 29.679 10.3288 31.976 11.3758 33.324C13.1458 32.642 12.6058 28.173 15.0288 29.689C15.9538 33.864 18.3718 28.095 20.2648 28.423C20.3028 30.533 20.2698 34.091 17.7828 34.696C15.5188 31.282 15.7648 35.816 13.6258 36.377C11.4068 35.504 8.6658 35 8.6658 35C8.6658 35 6.7898 36.504 6.9888 38.192C7.3948 41.637 10.4468 44.182 13.1638 45.54C13.6098 45.766 14.1408 45.754 14.6038 45.591C18.8128 43.121 23.9288 42.584 27.9758 39.761C31.1988 38.173 29.6558 42.666 31.9798 42.81C35.3798 40.41 38.7078 37.902 41.8578 35.182C46.2328 30.785 49.8088 25.605 52.7948 20.176C54.8678 16.894 49.6748 17.273 48.2488 18.901C44.8928 20.644 46.4138 15.538 47.4608 14.163C48.2418 12.125 50.0788 10.11 49.4248 7.818C47.7318 6.1 45.0588 7.07 42.9948 7.521C40.5728 8.501 41.0288 6.12 42.2448 5.037C43.3308 3.53 43.6118 0 41.4548 0ZM38.1518 3.836C40.6228 4.459 37.7978 7.132 37.0718 8.338C35.2918 10.018 37.1088 12.368 39.2288 11.354C41.3788 11.03 43.6888 10.427 45.7748 11.361C44.8748 14.848 42.0678 17.857 42.3998 21.621C43.2798 23.785 46.1038 22.894 47.8498 22.511C43.0818 29.731 39.1508 33.437 33.5208 38.175C33.0178 37.071 33.6058 34.655 31.4218 35.031C29.3518 35.347 28.0488 37.218 26.0368 37.801C21.9378 39.656 18.1738 40.783 14.0028 42.446C11.6498 43.688 10.1608 38.536 10.1608 38.536C10.1608 38.536 12.3358 39.066 12.9828 39.323C14.6808 39.99 15.4168 38.046 16.3198 36.571C17.4538 37.341 19.2548 38.713 20.1448 36.581C20.9808 35.071 22.0998 32.352 22.6628 29.806C22.9588 27.852 22.3018 25.053 20.2388 24.526C18.8608 24.841 17.3078 28.913 16.3408 26.351C15.2348 23.608 12.9788 27.934 11.9788 29.129C10.6668 30.146 10.1768 25.52 8.5718 27.317C7.8788 28.154 6.1408 30.01 6.1408 30.01L3.8728 27.268C1.6668 24.6 3.7848 19.998 6.3688 17.906C15.6888 11.976 23.2938 7.571 38.1518 3.836Z" transform="translate(1.57845 1.69824)" fill="#692323"/>
<path d="M2.23454 9.37976e-05C1.00254 0.0950938 -0.132457 1.23409 0.0125432 2.50009C0.442543 3.61009 2.14254 3.42709 2.79654 2.61509C3.44654 1.89109 3.36654 0.552094 2.50254 0.0450939C2.41669 0.0138997 2.32587 -0.0013507 2.23454 9.37976e-05ZM8.07854 3.42709C6.84554 3.52309 5.71154 4.66209 5.85654 5.92709C6.28654 7.03809 7.98654 6.85509 8.64054 6.0431C9.29054 5.3181 9.21054 3.9791 8.34654 3.4731C8.26044 3.44144 8.16927 3.42585 8.07754 3.42709H8.07854ZM3.59854 4.60809C2.36654 4.70309 1.23254 5.84209 1.37854 7.10809C1.80854 8.21809 3.50854 8.0351 4.16154 7.2231C4.81154 6.4981 4.73154 5.15909 3.86654 4.65309C3.7807 4.6219 3.68987 4.60665 3.59854 4.60809Z" transform="translate(31.7867 16.853)" fill="#692323"/>
<path d="M2.66547 0.000828007C2.94047 0.024828 3.20047 0.374828 3.32647 0.597828C3.53947 1.00683 3.91147 1.45383 3.74247 1.94283C3.36747 2.56883 2.69747 2.93983 2.05847 3.24883C1.73047 3.38583 1.40447 3.53083 1.06047 3.62083C0.725473 3.73683 0.285473 3.72883 0.0884729 3.38283C-0.136527 2.93083 0.112474 2.41883 0.336474 2.01283C0.699474 1.44383 1.07147 0.844828 1.62947 0.447829C1.88847 0.333829 2.05947 0.159829 2.38947 0.103829C2.4255 0.0680108 2.46876 0.040294 2.51635 0.0225317C2.56395 0.00476942 2.61479 -0.00262996 2.66547 0.000828007Z" transform="translate(22.6318 15.5884)" fill="#E9E9F1"/>
<path fill-rule="evenodd" clip-rule="evenodd" d="M5.056 0.000487385C3.41 -0.0295126 1.43 1.33049 0.604 2.68049C1.009 3.70349 1.108 4.91849 0.956999 5.91449C0.706931 7.01039 0.387284 8.08924 0 9.14449C3.576 8.81749 8.422 1.96249 6.21 0.27349C5.96 0.06349 5.622 -0.00650996 5.303 0.01649C5.22095 0.00743467 5.13853 0.00209322 5.056 0.000487385Z" transform="translate(23.2843 25.5894)" fill="#FFA726"/>
</svg>
