<svg width="95" height="95" viewBox="0 0 95 95" fill="none" xmlns="http://www.w3.org/2000/svg">
<path d="M47.3515 94.7402C73.503 94.7402 94.703 73.5319 94.703 47.3701C94.703 21.2083 73.503 0 47.3515 0C21.2 0 0 21.2083 0 47.3701C0 73.5319 21.2 94.7402 47.3515 94.7402Z" transform="translate(0.296875 0.111214)" fill="#2EA2DB"/>
<path d="M46.0154 0L0 20.6408L46.0154 41.2816L92.0309 20.6408L46.0154 0Z" transform="translate(1.48438 1.4479)" fill="#E1E6E9"/>
<path d="M47.4998 44.2146C47.3513 44.2146 47.0546 44.2146 46.9061 44.066L0.89071 23.4252C0.296967 23.1281 0 22.6827 0 22.0887C0 21.4947 0.296967 20.9008 0.89071 20.7522L46.9061 0.111406C47.3513 -0.0371355 47.7968 -0.0371355 48.0936 0.111406L94.1091 20.7522C94.7028 21.0493 94.9998 21.4947 94.9998 22.0887C94.9998 22.6827 94.703 23.2767 94.1091 23.4252L48.0936 44.066C47.9453 44.2146 47.6483 44.2146 47.4998 44.2146ZM5.04691 22.0887L47.5 41.0961L89.9531 22.0887L47.4998 3.08129L5.04691 22.0887Z" fill="#193651"/>
<path d="M54.6249 5.90267C37.5547 -1.96756 17.0702 -1.96756 0 5.90267V29.5134C17.0702 37.3836 37.5547 37.3836 54.6249 29.5134V5.90267Z" transform="translate(20.1873 17.6709)" fill="white"/>
<path d="M28.7968 38.1634C19.1484 38.1634 9.50008 36.0844 0.89071 32.2236C0.296967 31.9265 0 31.4811 0 30.8871V7.27625C0 6.68228 0.296967 6.23684 0.89071 5.93976C9.50008 2.07882 19.1484 0 28.7968 0C38.4452 0 48.0936 2.07901 56.7029 5.93976C57.2967 6.23684 57.5936 6.68228 57.5936 7.27625V30.8871C57.5936 31.4811 57.2967 31.9265 56.7029 32.2236C48.0937 36.0844 38.4454 38.1634 28.7968 38.1634ZM2.96891 29.8475C10.9845 33.4114 19.8907 35.1933 28.797 35.1933C37.7033 35.1933 46.6095 33.4114 54.6251 29.8475V8.16731C46.6095 4.60346 37.7033 2.82153 28.797 2.82153C19.8907 2.82153 10.9845 4.60346 2.96891 8.16731V29.8475Z" transform="translate(18.7029 16.4458)" fill="#193651"/>
<path d="M21.3749 23.4623C13.9531 23.4623 6.67965 22.1258 0 19.6014V3.86094C6.67965 1.33649 13.9531 0 21.3749 0C28.7968 0 36.0702 1.33649 42.7499 3.86094V19.6014C36.0702 22.1258 28.7968 23.4623 21.3749 23.4623Z" transform="translate(26.1248 23.7221)" fill="#E1E6E9"/>
<path d="M1.48445 17.8197C0.593743 17.8197 0 17.2257 0 16.3346V1.48504C0 0.593975 0.593743 0 1.48445 0C2.37516 0 2.96891 0.593975 2.96891 1.48504V16.3346C2.96891 17.2257 2.22668 17.8197 1.48445 17.8197Z" transform="translate(7.71875 24.019)" fill="#193651"/>
<path d="M3.85942 7.12771C5.99093 7.12771 7.71885 5.53212 7.71885 3.56386C7.71885 1.59559 5.99093 0 3.85942 0C1.72792 0 0 1.59559 0 3.56386C0 5.53212 1.72792 7.12771 3.85942 7.12771Z" transform="translate(5.34351 40.3536)" fill="white"/>
<path d="M5.34369 10.0978C2.37497 10.0978 0 7.87042 0 5.04889C0 2.22736 2.37497 0 5.34369 0C8.3124 0 10.6874 2.22736 10.6874 5.04889C10.6874 7.87042 8.3124 10.0978 5.34369 10.0978ZM5.34369 2.97007C4.00772 2.97007 2.96871 3.86113 2.96871 5.04908C2.96871 6.23704 4.00772 7.1281 5.34369 7.1281C6.67966 7.1281 7.71866 6.23704 7.71866 5.04908C7.71866 4.00948 6.67966 2.97007 5.34369 2.97007Z" transform="translate(3.85938 38.8686)" fill="#193651"/>
<path d="M2.96871 0H0V2.96988H2.96871V0Z" transform="translate(37.1091 33.9684)" fill="#193651"/>
<path d="M2.96871 0H0V2.96988H2.96871V0Z" transform="translate(46.0159 33.9684)" fill="#193651"/>
<path d="M2.96872 0H0V2.96988H2.96872V0Z" transform="translate(54.9216 33.9684)" fill="#193651"/>
<path d="M33.3983 17.968V6.68228C33.3983 2.96988 30.4296 0 26.7186 0H12.3203C5.49217 0 0 5.49433 0 12.3251C0 19.156 5.49217 24.6503 12.3203 24.6503H26.7188C30.4296 24.6503 33.3983 21.6804 33.3983 17.968Z" transform="translate(60.1172 68.8647)" fill="white"/>
<path d="M28.2029 0H13.8046C6.23421 0 0 6.23685 0 13.81C0 21.3831 6.2344 27.62 13.8046 27.62H28.2031C32.6562 27.62 36.3672 23.9076 36.3672 19.4527V8.16693C36.367 3.7124 32.656 0 28.2029 0ZM33.3983 19.4529C33.3983 22.2742 31.0233 24.6503 28.2029 24.6503H13.8046C7.86714 24.6503 2.96872 19.75 2.96872 13.8102C2.96872 7.87043 7.86714 2.97008 13.8046 2.97008H28.2031C31.0233 2.97008 33.3985 5.34598 33.3985 8.16751V19.4529H33.3983Z" transform="translate(58.6328 67.3798)" fill="#193651"/>
<path d="M12.3203 12.3251H17.664V0H0C0 6.83082 5.49217 12.3251 12.3203 12.3251Z" transform="translate(60.1172 81.1898)" fill="#FDBF5E"/>
<path d="M19.1483 15.295H13.8046C6.23421 15.295 0 9.05819 0 1.48504C0 0.593981 0.593748 0 1.48446 0H19.1484C20.0392 0 20.6329 0.593981 20.6329 1.48504V13.8102C20.6325 14.7011 19.8905 15.295 19.1483 15.295ZM2.96852 2.96988C3.71075 8.16713 8.16392 12.3251 13.6561 12.3251H17.5155V2.96988H2.96852Z" transform="translate(58.781 79.705)" fill="#193651"/>
<path d="M17.664 0H12.3203C5.49217 0 0 5.49433 0 12.3251H17.664V0Z" transform="translate(60.2654 68.8649)" fill="#F16051"/>
<path d="M19.2969 15.295H1.48445C0.593742 15.295 0 14.7011 0 13.81C0 6.23666 6.23439 0 13.8046 0H19.1483C20.039 0 20.6327 0.593981 20.6327 1.48504V13.8102C20.7812 14.7011 20.0392 15.295 19.2969 15.295ZM3.11719 12.3251H17.8125V2.96988H13.953C8.31259 2.96988 3.85942 7.12771 3.11719 12.3251Z" transform="translate(58.6326 67.3798)" fill="#193651"/>
<path d="M0 2.52445C0 4.00949 1.18749 5.04889 2.52346 5.04889H6.53118C8.01563 5.04889 9.05463 3.86094 9.05463 2.52445C9.05463 1.03941 7.86715 0 6.53118 0H2.52346C1.18749 0.00019142 0 1.03961 0 2.52445Z" transform="translate(64.4216 78.6654)" fill="white"/>
<path d="M8.01544 8.01858H4.00772C1.78123 8.01858 0 6.23665 0 4.00929C0 1.78193 1.78123 0 4.00772 0H8.01544C10.2419 0 12.0231 1.78193 12.0231 4.00929C12.1716 6.08811 10.3904 8.01858 8.01544 8.01858ZM4.15601 2.82115C3.56227 2.82115 3.11701 3.26658 3.11701 3.86056C3.11701 4.45453 3.56227 4.89997 4.15601 4.89997H8.16373C8.75747 4.89997 9.20273 4.45453 9.20273 3.86056C9.20273 3.26658 8.75747 2.82115 8.16373 2.82115H4.15601Z" transform="translate(62.9377 77.3293)" fill="#193651"/>
<path d="M60.1171 30.7386H7.57036C3.41397 30.7386 0 27.3233 0 23.1653C0 19.0074 3.41397 15.5919 7.57036 15.5919H41.2656C43.7891 15.5919 45.8671 13.5129 45.8671 10.9887V1.48504C45.8671 0.593975 46.4608 0 47.3515 0C48.2422 0 48.836 0.593975 48.836 1.48504V10.9887C48.836 15.1465 45.422 18.562 41.2656 18.562H7.57036C5.04691 18.562 2.96891 20.641 2.96891 23.1653C2.96891 25.6895 5.0471 27.7685 7.57036 27.7685H60.1171C61.0078 27.7685 61.6015 28.3625 61.6015 29.2536C61.6013 30.1446 61.0076 30.7386 60.1171 30.7386Z" transform="translate(0 51.9363)" fill="#193651"/>
</svg>
