<svg width="21" height="21" viewBox="0 0 21 21" fill="none" xmlns="http://www.w3.org/2000/svg">
<rect width="21" height="21" fill="black" fill-opacity="0"/>
<rect width="21" height="21" fill="black" fill-opacity="0"/>
<rect width="21" height="21" fill="black" fill-opacity="0"/>
<path d="M19.3524 20.6669L20.6627 19.3563C20.8357 19.1833 20.8357 18.9065 20.6627 18.7335L14.2105 12.2799L12.2774 14.2134L18.7296 20.6669C18.9026 20.8399 19.1794 20.8399 19.3524 20.6669Z" fill="#F47E00"/>
<path d="M7.06631 2.89807C4.76566 2.89807 2.89313 4.77099 2.89313 7.07212C2.89313 7.28839 3.07043 7.46573 3.28666 7.46573C3.50289 7.46573 3.68019 7.28839 3.68019 7.07212C3.68019 5.20353 5.19811 3.6853 7.06631 3.6853C7.28254 3.6853 7.45985 3.50796 7.45985 3.29169C7.45985 3.07109 7.28254 2.89807 7.06631 2.89807Z" fill="#F47E00"/>
<path d="M14.4872 12.0031C14.3359 11.8517 14.085 11.8517 13.9337 12.0031L13.2461 12.6908L12.3336 11.7782C13.4537 10.5281 14.1369 8.8758 14.1369 7.06776C14.1369 3.17055 10.9671 0 7.07063 0C3.17422 0 0 3.17055 0 7.06776C0 10.965 3.16989 14.1355 7.06631 14.1355C8.87397 14.1355 10.5216 13.4521 11.7757 12.3318L12.6882 13.2445L12.0006 13.9322C11.9271 14.0058 11.8839 14.1053 11.8839 14.2091C11.8839 14.3129 11.9271 14.4124 12.0006 14.4859L18.1371 20.6237C18.3793 20.8659 18.6993 21 19.041 21C19.3826 21 19.7026 20.8659 19.9448 20.6237L20.6238 19.9446C20.8659 19.7024 21 19.3823 21 19.0406C21 18.6989 20.8659 18.3788 20.6238 18.1366L14.4872 12.0031ZM0.787068 7.06776C0.787068 3.60309 3.60667 0.782904 7.07063 0.782904C10.5346 0.782904 13.3542 3.60309 13.3542 7.06776C13.3542 10.5324 10.5346 13.3526 7.07063 13.3526C3.60667 13.3526 0.787068 10.5324 0.787068 7.06776ZM20.0702 19.3953L19.3913 20.0744C19.2961 20.1695 19.175 20.2214 19.041 20.2214C18.9069 20.2214 18.7858 20.1695 18.6907 20.0744L12.8309 14.2134L14.2105 12.8336L20.0702 18.6945C20.1654 18.7897 20.2173 18.9108 20.2173 19.0449C20.2173 19.179 20.161 19.3044 20.0702 19.3953Z" fill="#3D3F41"/>
</svg>
