<svg width="110" height="87" viewBox="0 0 110 87" fill="none" xmlns="http://www.w3.org/2000/svg">
<path d="M12.0312 0H0V10.3366H12.0312V0Z" transform="translate(48.9844 65.896)" fill="#72D8FF"/>
<path d="M35.2344 0H4.29688C1.92371 0 0 1.92821 0 4.30693V8.61386H39.5312V4.30693C39.5312 1.92821 37.6075 0 35.2344 0Z" transform="translate(35.2344 76.2327)" fill="#5A54E0"/>
<path d="M101.406 63.7426H4.29688C1.92371 63.7426 0 61.8144 0 59.4356V4.30693C0 1.92821 1.92371 0 4.29688 0H101.406C103.779 0 105.703 1.92821 105.703 4.30693V59.4356C105.703 61.8144 103.779 63.7426 101.406 63.7426Z" transform="translate(2.14844 2.15347)" fill="#C9F3FF"/>
<path d="M82.5 0H0V20.6733H82.5V0Z" transform="translate(13.75 22.8547)" fill="white"/>
<path d="M20.625 0H0V19.9196H20.625V0Z" transform="translate(75.625 23.2316)" fill="#FEDA9B"/>
<path d="M4.29688 8.61386C6.66997 8.61386 8.59375 6.68558 8.59375 4.30693C8.59375 1.92828 6.66997 0 4.29688 0C1.92378 0 0 1.92828 0 4.30693C0 6.68558 1.92378 8.61386 4.29688 8.61386Z" transform="translate(81.6406 28.8694)" fill="#C9F3FF"/>
<path d="M2.14844 4.30693C2.71348 4.30693 3.26778 4.07651 3.66738 3.67597C4.06699 3.27542 4.29688 2.71983 4.29688 2.15347C4.29688 1.5871 4.06699 1.03151 3.66738 0.630965C3.26778 0.230421 2.71348 0 2.14844 0C1.5834 0 1.0291 0.230421 0.629491 0.630965C0.229881 1.03151 0 1.5871 0 2.15347C0 2.71983 0.229881 3.27542 0.629491 3.67597C1.0291 4.07651 1.5834 4.30693 2.14844 4.30693Z" transform="translate(85.293)" fill="black"/>
<path d="M103.555 0H96.25C95.0634 0 94.1016 0.964107 94.1016 2.15347C94.1016 3.34282 95.0634 4.30693 96.25 4.30693H103.555C104.739 4.30693 105.703 5.27298 105.703 6.4604V61.5891C105.703 62.7765 104.739 63.7426 103.555 63.7426H61.0156H48.9844H6.44531C5.26066 63.7426 4.29688 62.7765 4.29688 61.5891V6.4604C4.29688 5.27298 5.26066 4.30693 6.44531 4.30693H78.8477C80.0342 4.30693 80.9961 3.34282 80.9961 2.15347C80.9961 0.964107 80.0342 0 78.8477 0H6.44531C2.89137 0 0 2.89813 0 6.4604V61.5891C0 65.1514 2.89137 68.0495 6.44531 68.0495H46.8359V74.0792H39.5312C35.9773 74.0792 33.0859 76.9773 33.0859 80.5396V84.8465C33.0859 86.0357 34.0478 87 35.2344 87H74.7656C75.9522 87 76.9141 86.0357 76.9141 84.8465V80.5396C76.9141 76.9773 74.0227 74.0792 70.4688 74.0792H63.1641V68.0495H103.555C107.109 68.0495 110 65.1514 110 61.5891V6.4604C110 2.89813 107.109 0 103.555 0ZM72.6172 80.5396V82.6931H37.3828V80.5396C37.3828 79.3522 38.3466 78.3861 39.5312 78.3861H48.9844H61.0156H70.4688C71.6534 78.3861 72.6172 79.3522 72.6172 80.5396ZM58.8672 74.0792H51.1328V68.0495H58.8672V74.0792Z" fill="black"/>
<path d="M0 2.15347V22.8267C0 24.0159 0.961856 24.9802 2.14844 24.9802H84.6484C85.835 24.9802 86.7969 24.0159 86.7969 22.8267V2.15347C86.7969 0.964107 85.835 0 84.6484 0H2.14844C0.961856 0 0 0.964107 0 2.15347ZM82.5 18.0049L80.0198 15.5189C80.5052 14.6117 80.7812 13.5759 80.7812 12.4765C80.7812 8.91427 77.8899 6.01614 74.3359 6.01614C70.782 6.01614 67.8906 8.91427 67.8906 12.4765C67.8906 16.0388 70.782 18.9369 74.3359 18.9369C75.2252 18.9369 76.0732 18.7554 76.8445 18.4274L79.0851 20.6733H66.1719V4.30693H82.5V18.0049ZM74.3359 14.6298C73.1513 14.6298 72.1875 13.6637 72.1875 12.4763C72.1875 11.2889 73.1513 10.3229 74.3359 10.3229C75.5206 10.3229 76.4844 11.2889 76.4844 12.4763C76.4844 13.6637 75.5206 14.6298 74.3359 14.6298ZM4.29688 4.30693H61.875V20.6733H4.29688V4.30693Z" transform="translate(11.6016 20.7006)" fill="black"/>
<path d="M32.7278 0H2.14844C0.961856 0 0 0.964106 0 2.15347C0 3.34282 0.961856 4.30693 2.14844 4.30693H32.7278C33.9144 4.30693 34.8762 3.34282 34.8762 2.15347C34.8762 0.964106 33.9144 0 32.7278 0Z" transform="translate(31.7969 31.0235)" fill="black"/>
<path d="M2.14844 0C1.58125 0 1.02695 0.230422 0.629492 0.630967C0.227734 1.03151 0 1.5871 0 2.15347C0 2.72198 0.227734 3.27542 0.629492 3.67812C1.0291 4.07866 1.58125 4.30693 2.14844 4.30693C2.71348 4.30693 3.26777 4.07866 3.66738 3.67812C4.06699 3.27542 4.29688 2.71983 4.29688 2.15347C4.29688 1.5871 4.06699 1.03151 3.66738 0.630967C3.26777 0.230422 2.71348 0 2.14844 0Z" transform="translate(22.9175 31.0228)" fill="black"/>
</svg>
