<svg width="20" height="20" viewBox="0 0 20 20" fill="none" xmlns="http://www.w3.org/2000/svg">
<path d="M20 15.7955C20 16.0511 19.9527 16.3849 19.858 16.7969C19.7633 17.2088 19.6638 17.5331 19.5597 17.7699C19.3608 18.2434 18.7831 18.7453 17.8267 19.2756C16.9366 19.7585 16.0559 20 15.1847 20C14.929 20 14.678 19.9834 14.4318 19.9503C14.1856 19.9171 13.9134 19.858 13.6151 19.7727C13.3168 19.6875 13.0942 19.6188 12.9474 19.5668C12.8007 19.5147 12.5379 19.4176 12.1591 19.2756C11.7803 19.1335 11.5483 19.0483 11.4631 19.0199C10.535 18.6884 9.70644 18.2955 8.97727 17.8409C7.77462 17.0928 6.52462 16.0701 5.22727 14.7727C3.92992 13.4754 2.9072 12.2254 2.15909 11.0227C1.70455 10.2936 1.31155 9.46496 0.980114 8.53693C0.951705 8.4517 0.866477 8.2197 0.724432 7.84091C0.582386 7.46212 0.485322 7.19934 0.433239 7.05256C0.381155 6.90578 0.3125 6.68324 0.227273 6.38494C0.142045 6.08665 0.0828598 5.81439 0.0497159 5.56818C0.016572 5.32197 0 5.07102 0 4.81534C0 3.94413 0.241477 3.06345 0.724432 2.1733C1.25473 1.21686 1.75663 0.639205 2.23011 0.440341C2.46686 0.336174 2.79119 0.236742 3.20312 0.142045C3.61506 0.0473485 3.94886 0 4.20455 0C4.33712 0 4.43655 0.0142045 4.50284 0.0426136C4.6733 0.0994318 4.92424 0.45928 5.25568 1.12216C5.35985 1.30208 5.50189 1.55777 5.68182 1.8892C5.86174 2.22064 6.02746 2.52131 6.17898 2.79119C6.33049 3.06108 6.47727 3.31439 6.61932 3.55114C6.64773 3.58902 6.73059 3.70739 6.8679 3.90625C7.00521 4.10511 7.10701 4.2732 7.1733 4.41051C7.23958 4.54782 7.27273 4.68277 7.27273 4.81534C7.27273 5.00473 7.13778 5.24148 6.8679 5.52557C6.59801 5.80966 6.30445 6.07008 5.98722 6.30682C5.66998 6.54356 5.37642 6.79451 5.10653 7.05966C4.83665 7.32481 4.7017 7.54261 4.7017 7.71307C4.7017 7.7983 4.72538 7.90483 4.77273 8.03267C4.82008 8.16051 4.86032 8.25758 4.89347 8.32386C4.92661 8.39015 4.9929 8.50379 5.09233 8.66477C5.19176 8.82576 5.24621 8.91572 5.25568 8.93466C5.97538 10.232 6.79924 11.3447 7.72727 12.2727C8.6553 13.2008 9.76799 14.0246 11.0653 14.7443C11.0843 14.7538 11.1742 14.8082 11.3352 14.9077C11.4962 15.0071 11.6098 15.0734 11.6761 15.1065C11.7424 15.1397 11.8395 15.1799 11.9673 15.2273C12.0952 15.2746 12.2017 15.2983 12.2869 15.2983C12.4574 15.2983 12.6752 15.1634 12.9403 14.8935C13.2055 14.6236 13.4564 14.33 13.6932 14.0128C13.9299 13.6955 14.1903 13.402 14.4744 13.1321C14.7585 12.8622 14.9953 12.7273 15.1847 12.7273C15.3172 12.7273 15.4522 12.7604 15.5895 12.8267C15.7268 12.893 15.8949 12.9948 16.0938 13.1321C16.2926 13.2694 16.411 13.3523 16.4489 13.3807C16.6856 13.5227 16.9389 13.6695 17.2088 13.821C17.4787 13.9725 17.7794 14.1383 18.1108 14.3182C18.4422 14.4981 18.6979 14.6402 18.8778 14.7443C19.5407 15.0758 19.9006 15.3267 19.9574 15.4972C19.9858 15.5634 20 15.6629 20 15.7955Z" fill="white"/>
</svg>
