<svg width="29" height="34" viewBox="0 0 29 34" fill="none" xmlns="http://www.w3.org/2000/svg">
<path d="M0.878055 0C0.586981 0 0.293759 0.136532 0 0.419688V6.26291C0.293759 6.55191 0.586981 6.69109 0.878055 6.69109C1.38341 6.69109 1.64226 6.26291 1.64226 5.39803V1.30847C1.6428 0.441469 1.38341 0 0.878055 0Z" transform="translate(16.6052 22.0285)" fill="white"/>
<path d="M0.881816 0C0.294834 0 0 0.44147 0 1.32919V2.21691H1.75826V1.32919C1.7588 0.44147 1.46504 0 0.881816 0Z" transform="translate(23.0276 22.0285)" fill="white"/>
<path d="M27.5586 1.49334C26.455 0.356999 25.2187 0.352218 24.6511 0.286874C20.5932 -5.38304e-07 14.507 0 14.507 0H14.4936C14.4936 0 8.40732 -5.38304e-07 4.3457 0.286874C3.77967 0.352218 2.54556 0.357531 1.44087 1.49334C0.571944 2.36034 0.287852 4.32331 0.287852 4.32331C0.287852 4.32331 0 6.63053 0 8.93722V11.101C0 13.4072 0.287852 15.7154 0.287852 15.7154C0.287852 15.7154 0.571944 17.6784 1.44087 18.5422C2.54556 19.6786 3.99341 19.643 4.63731 19.7614C6.95946 19.9808 14.5 20.0473 14.5 20.0473C14.5 20.0473 20.5938 20.0387 24.6516 19.7487C25.2193 19.6844 26.4555 19.678 27.5591 18.5422C28.4286 17.6784 28.7121 15.7154 28.7121 15.7154C28.7121 15.7154 29 13.4072 29 11.101V8.93722C29 6.63053 28.7121 4.32331 28.7121 4.32331C28.7121 4.32331 28.4281 2.36034 27.5586 1.49334ZM6.3902 16.2122H4.43431V5.16109H2.36619V3.35166H8.49593V5.16109H6.39074V16.2122H6.3902ZM13.3244 16.2122H11.564V15.1661C10.8664 15.9572 10.1999 16.346 9.55443 16.346C8.98839 16.346 8.59796 16.1165 8.4202 15.631C8.32461 15.3409 8.26661 14.8824 8.26661 14.2056V6.62947H10.0254V13.6845C10.0254 14.0909 10.0254 14.3028 10.0383 14.3592C10.0829 14.6285 10.2187 14.7677 10.4524 14.7677C10.8057 14.7677 11.1725 14.4983 11.5635 13.9533V6.62947H13.3239V16.2122H13.3244ZM20.0052 13.3386C20.0052 14.2221 19.9461 14.8612 19.8274 15.2676C19.5922 15.9816 19.1223 16.346 18.4241 16.346C17.7969 16.346 17.1922 16.0023 16.6052 15.2841V16.2122H14.8453V3.35166H16.6052V7.55119C17.1723 6.86109 17.7754 6.51206 18.4241 6.51206C19.1217 6.51206 19.5916 6.87756 19.8274 7.59369C19.9461 7.98097 20.0052 8.61263 20.0052 9.52106V13.3386ZM26.5457 11.7364H23.0281V13.4358C23.0281 14.3236 23.323 14.7672 23.9266 14.7672C24.3595 14.7672 24.6113 14.5334 24.7123 14.0707C24.7279 13.9761 24.7515 13.5883 24.7515 12.8918H26.5457V13.1463C26.5457 13.7047 26.5226 14.0898 26.5076 14.2651C26.4496 14.6492 26.31 14.9972 26.0962 15.3037C25.6097 16.0007 24.8879 16.345 23.968 16.345C23.0491 16.345 22.3493 16.0167 21.8413 15.3606C21.4675 14.8814 21.2769 14.1249 21.2769 13.1075V9.75056C21.2769 8.72684 21.4476 7.97991 21.8204 7.49328C22.3284 6.83772 23.0281 6.511 23.9266 6.511C24.809 6.511 25.5093 6.83719 26.0012 7.49328C26.3691 7.97991 26.5463 8.72684 26.5463 9.75056V11.7364H26.5457Z" transform="translate(0 13.953)" fill="white"/>
<path d="M4.44076 12.9944V7.73075L6.81017 0H4.81776L3.47356 5.10266L2.07457 0H0C0.417278 1.20487 0.849056 2.414 1.26526 3.621C1.89574 5.43309 2.291 6.79894 2.47037 7.73022V12.9938H4.44076V12.9944Z" transform="translate(5.41711)" fill="white"/>
<path d="M2.62504 9.93278C3.51437 9.93278 4.205 9.60128 4.69692 8.94253C5.06855 8.45909 5.24954 7.69622 5.24954 6.66506V3.27197C5.24954 2.23869 5.06855 1.48325 4.69692 0.993438C4.20446 0.329375 3.51437 0 2.62504 0C1.73678 0 1.04454 0.329375 0.555296 0.993438C0.175611 1.48325 0 2.23869 0 3.27197V6.66506C0 7.69622 0.175611 8.45909 0.555296 8.94253C1.04454 9.60128 1.73678 9.93278 2.62504 9.93278ZM1.77598 2.92081C1.77598 2.02513 2.05202 1.57728 2.62504 1.57728C3.19537 1.57728 3.4698 2.02566 3.4698 2.92081V6.99497C3.4698 7.89119 3.19537 8.33903 2.62504 8.33903C2.05202 8.33903 1.77598 7.89066 1.77598 6.99497V2.92081Z" transform="translate(11.8573 3.19519)" fill="white"/>
<path d="M5.10937 9.68522V0H3.33285V7.40297C2.9392 7.95228 2.5665 8.22534 2.21152 8.22534C1.97254 8.22534 1.8313 8.08456 1.79424 7.81469C1.77169 7.75678 1.77169 7.54375 1.77169 7.13203V0H0V7.65956C0 8.34434 0.0579996 8.80759 0.157351 9.09978C0.335648 9.58853 0.730909 9.81856 1.30285 9.81856C1.94945 9.81856 2.62396 9.42969 3.33339 8.62856V9.68522H5.10937Z" transform="translate(18.4708 3.30902)" fill="white"/>
</svg>
